<svg height="887" width="1774" xmlns="http://www.w3.org/2000/svg"><path d="m0 0h1774v887c-585.42 0-1170.84 0-1774 0 0-292.71 0-585.42 0-887z" fill="#fdfdfd"/><path d="m0 0c2.56680922.01072551 5.13291885.00004309 7.69970703-.01269531 9.30956475-.00847707 18.20633583.46019165 27.37109375 2.2734375 1.29526611.24290771 1.29526611.24290771 2.61669922.49072265 2.36338401.45595984 4.71734075.94226795 7.07080078 1.44677735 1.22505249.2621228 1.22505249.2621228 2.47485352.52954101 23.24085056 5.06183546 45.11803831 15.89632658 63.83764648 30.53295899.94875.73863281 1.8975 1.47726562 2.875 2.23828125 33.09140944 26.46372658 59.80778791 64.59362005 67.58984375 106.88793945.40271845 2.16259073.84585298 4.31771486 1.30859375 6.46826172 2.07338638 9.82159886 2.75563433 19.25562891 2.6640625 29.28051758-.00437073.75679046-.00874145 1.51358093-.01324463 2.29330444-.24420835 30.7996699-7.10846736 60.88955025-22.42425537 87.83169556-.66578602 1.22432474-1.32982422 2.44960142-1.9921875 3.67578125-20.10997588 36.74022607-53.68928824 67.2362586-93.45703125 81.0703125-3.54346519 1.18954947-3.54346519 1.18954947-6.80078125 2.75390625-4.81809399 2.10500562-9.93395862 3.00750479-15.0625 4.0625-1.47243164.31227539-1.47243164.31227539-2.97460937.63085937-1.97056159.41602194-3.94293416.82355463-5.91699219 1.22265625-1.70704403.35655338-3.40919404.73945312-5.09960938 1.16796875-8.64197575 2.08123542-17.4856005 1.8117584-26.32128906 1.79101563-.86638092-.00054383-1.73276184-.00108765-2.62539673-.00164795-14.23058813-.04104204-27.88185037-.95099624-41.74960327-4.37335205-.85464844-.20898926-1.70929687-.41797852-2.58984375-.63330078-25.9803753-6.5988967-48.87874984-18.73014922-69.87060547-35.19677735-1.46945434-1.1166548-3.00392447-2.146171-4.53955078-3.16992187v2c-1.64453125 1.69140625-1.64453125 1.69140625-3.8125 3.5625-.70769531.62003906-1.41539062 1.24007812-2.14453125 1.87890625-2.04296875 1.55859375-2.04296875 1.55859375-5.04296875 2.55859375l1.5 2.875c2.21769394 5.2776851 2.72795637 10.78843167.7265625 16.2265625-3.44569754 6.13383037-8.96688701 10.37232902-14.2265625 14.8984375-1.96522507 1.78488053-3.92384046 3.57495532-5.875 5.375-1.0193521.93639297-2.03888458 1.87258963-3.05859375 2.80859375-.50772949.46647949-1.01545898.93295898-1.53857422 1.41357422-1.49903904 1.37639475-2.99947279 2.75124942-4.50048828 4.12548828-5.22930874 4.78807504-10.4473893 9.58779901-15.65234375 14.40234375-3.70342292 3.42563907-7.42412287 6.82756699-11.1875 10.1875-4.34885543 3.89848853-8.61742132 7.87753062-12.875 11.875-.67973877.63776367-1.35947754 1.27552734-2.05981445 1.93261719-3.45210116 3.24149336-6.89754289 6.48975334-10.3347168 9.74707031-1.30595229 1.23181037-2.61194046 2.46358271-3.91796875 3.6953125-.5861206.55905029-1.17224121 1.11810058-1.77612305 1.69409179-7.84760784 7.38526472-14.48488845 12.98461073-25.72387695 13.11840821-1.0828125.02835937-2.165625.05671875-3.28125.0859375-7.56686144-1.08360395-12.27840887-7.37128309-17.21875-12.7109375-.68578125-.72574219-1.3715625-1.45148438-2.078125-2.19921875-13.25256162-14.18833411-13.25256162-14.18833411-14.234375-24.98828125 1.39698597-15.92564007 16.97017568-25.96581892 28.1875-35.6875 2.74323418-2.42050075 5.43384569-4.89700642 8.125-7.375 3.30028923-3.03888018 6.60949283-6.06156046 10-9 5.43702522-4.71807974 10.70533592-9.62367975 16-14.5 2.08231041-1.91778218 4.16540371-3.83470261 6.25-5.75.74878418-.68799683.74878418-.68799683 1.51269531-1.38989258 3.45671099-3.16712256 6.9596321-6.27333114 10.51855469-9.32495117 1.98403141-1.77210079 3.84370748-3.64874544 5.71875-5.53515625-1.36730003.00119339-1.36730003.00119339-2.76222229.00241089-8.60705039.00221141-17.21343731-.02427791-25.82029819-.08268929-4.42454-.02902382-8.84855138-.04710186-13.27319241-.03983879-4.27331237.0066065-8.54558142-.01596556-12.8186779-.05843735-1.62696238-.01110792-3.25403086-.01185219-4.88100052-.0018692-14.34847466.07672876-14.34847466.07672876-18.87405205-3.68236923-4.12636087-4.47926784-4.96393751-7.73415297-4.81665039-13.70361328.46600894-4.60831066 2.60054628-6.73821213 5.66091919-10.03483582 4.43773891-3.61553215 9.34092887-3.05990419 14.82296753-2.96638489 1.68380516-.0010952 1.68380516-.0010952 3.40162659-.00221252 3.70141827.00347668 7.40157014.04234485 11.10276794.08155823 2.56974602.00932775 5.13950094.01644404 7.70925903.0214386 6.06679428.01712422 12.13306781.05650892 18.19966615.10674744 6.90925431.05596947 13.81853073.08339893 20.72795546.10847718 14.20722001.05220314 28.41405983.14009772 42.62093186.25161803-.39791748-.6798999-.79583496-1.35979981-1.20581055-2.06030274-1.82824322-3.12514081-3.65497551-6.25116232-5.48168945-9.37719726-.62583984-1.06927735-1.25167969-2.13855469-1.89648437-3.24023438-1.23704385-2.11787087-2.47000206-4.23813379-3.69873047-6.36083984-1.06187495-1.83118327-2.13324322-3.65694227-3.21972656-5.47363281-2.79892419-4.78479327-4.40866278-9.04331387-5.4975586-14.48779297-.77083923.00645255-1.54167847.0129051-2.33587646.01955318-18.77103916.1547056-37.54195079.2704824-56.31349182.34313202-9.07788514.03606835-18.15534427.08522707-27.23295594.16539097-7.91366681.06985175-15.82702505.11495056-23.74099159.13054329-4.18914179.00911252-8.37740098.03047059-12.56625938.08149093-3.94664228.0476786-7.89204246.06213812-11.83894539.05164338-1.44478493.00191853-2.88961335.01574732-4.33414841.04268455-12.24103195.21698132-12.24103195.21698132-17.48230171-4.07160568-3.41943956-3.36069504-4.36207311-6.58858873-4.45581055-11.33314514.62920433-5.08266354 2.86756729-8.07987001 6.60159302-11.59661865 5.11556963-3.23943874 11.50330832-2.35171262 17.32369995-2.28717042 1.39002957.00112923 2.78006153.00049316 4.17008972-.00177001 3.76213193-.00114519 7.52375118.0223318 11.28576422.05029583 3.93576011.02504662 7.87153266.02735821 11.80736017.03210163 7.44789116.01242024 14.89554677.04522882 22.34333432.08539796 8.48120202.04474745 16.96241543.0667122 25.44370615.08678174 17.44188069.04178271 34.88353227.11211609 52.3252337.20129442-.31287964-1.32390747-.31287964-1.32390747-.63208008-2.67456055-.27223388-1.16313721-.54446777-2.32627441-.82495117-3.5246582-.27046142-1.15072998-.54092285-2.30145996-.81958008-3.48706055-1.57726845-7.22519902-1.76970754-14.27546517-1.74291992-21.63793945.00211487-1.10958069.00211487-1.10958069.00427246-2.24157715.00365645-1.81140482.00926034-3.62280553.01525879-5.4342041-.7884732.00888244-1.57694641.01776489-2.38931274.0269165-7.44446539.08027498-14.88871979.14111298-22.33350563.18033219-3.82712005.0208412-7.65388132.04909431-11.48079491.09450912-3.69586062.0435832-7.39137698.06740536-11.08747482.07775116-1.40738593.00736916-2.81475383.02175966-4.2219925.04341125-1.97673411.0291937-3.95381743.03071503-5.93076706.03118134-1.68544418.01332367-1.68544418.01332367-3.40493774.0269165-4.72890043-.72184437-7.84729022-3.04670125-11.0262146-6.54351806-1.78345769-4.65680619-2.00224305-9.03195688-1.125-13.9375 2.35462537-4.29014267 5.46757852-7.1669143 10-9 2.9866333-.24050904 2.9866333-.24050904 6.51269531-.22705078.64431977-.00029206 1.28863953-.00058411 1.95248413-.00088501 2.12112078.00138885 4.24188646.01692863 6.36294556.03262329 1.47401742.00373172 2.94803732.00657794 4.42205811.00857544 3.87325936.00762395 7.74636794.0272617 11.61956787.04940796 3.95485392.02048516 7.90973229.02959946 11.86462402.03967285 7.75527696.02142804 15.51042983.05554892 23.265625.09765625.13399704-.74883454.26799408-1.49766907.40605164-2.26919556.17755325-.98576019.3551065-1.97152038.53804016-2.9871521.26287056-1.4635643.26287056-1.4635643.53105163-2.95669556 1.81047014-9.61348747 4.71596632-18.82674111 8.37641907-27.88461303 1.16226109-2.93727887 2.16057152-5.90262972 3.1484375-8.90234375-.60684159.00368717-1.21368318.00737434-1.83891392.01117325-14.78174904.0884274-29.56347246.15457344-44.34542083.19607544-7.14853141.02060477-14.29688601.04868514-21.44530392.09450912-6.23227464.03993204-12.46442118.06569016-18.6968202.07459617-3.29855437.00520413-6.59665801.01950498-9.89511591.04656624-3.6868606.02904431-7.37296273.03303516-11.05991936.03118134-1.08757095.0143811-2.17514191.02876221-3.29566956.0435791-7.76061134-.04221253-11.88166992-1.50130911-17.8603363-6.56018066-2.44800656-4.60225233-2.64633006-8.85837483-1.5625-13.9375 2.28903119-3.73974186 5.03661142-7.01830571 9-9 1.81740279-.07989548 3.63784049-.09389416 5.45692444-.07746887 1.1593103.0075531 2.31862061.0151062 3.51306152.02288818 1.2784227.01309708 2.5568454.02619415 3.87400818.03968811 1.3551288.0100613 2.71026221.01951739 4.06539917.02841186 2.16790472.01428309 4.33580012.02894794 6.50368989.04535997 5.3826999.04033814 10.76521896.06109417 16.14805877.06985915.78102319.00128361 1.56204639.00256723 2.36673695.00388974 3.22344987.00488117 6.44690016.00905715 9.67035156.01278657 9.14897319.01129295 18.29690405.0419788 27.44547069.13217318 7.26538273.07150313 14.52953714.100444 21.79526228.07983666 3.84385325-.00932091 7.6849654.00253214 11.52836329.06596679 3.6218424.05927505 7.23942324.06174442 10.86149025.0220089 1.95110483-.00691846 3.90214286.04543945 5.8524971.09999465 5.45240269-.10851155 8.63207814-.30586498 12.65908623-4.18552207 2.35425464-2.95283208 4.29433406-6.13768948 6.25959968-9.35987282 1.84104675-2.28590607 3.79671676-4.43036616 5.8125-6.5625.50370117-.53681397 1.00740234-1.07362793 1.52636719-1.62670899 25.12612232-26.45738517 56.79959938-44.46390982 92.28613281-52.99829101.64396729-.15500977 1.28793457-.31001953 1.95141602-.46972657 2.13482664-.48756583 4.27432941-.92319962 6.42358398-1.34277343 1.35206543-.27142823 1.35206543-.27142823 2.73144531-.54833985 9.07889364-1.6227765 18.00691112-1.75801446 27.19775391-1.71240234z" fill="#fbfbfc" transform="translate(486.929199 261.739258)"/><path d="m0 0c2.56680922.01072551 5.13291885.00004309 7.69970703-.01269531 9.30956475-.00847707 18.20633583.46019165 27.37109375 2.2734375 1.29526611.24290771 1.29526611.24290771 2.61669922.49072265 2.36338401.45595984 4.71734075.94226795 7.07080078 1.44677735 1.22505249.2621228 1.22505249.2621228 2.47485352.52954101 23.24085056 5.06183546 45.11803831 15.89632658 63.83764648 30.53295899.94875.73863281 1.8975 1.47726562 2.875 2.23828125 33.09140944 26.46372658 59.80778791 64.59362005 67.58984375 106.88793945.40271845 2.16259073.84585298 4.31771486 1.30859375 6.46826172 2.07338638 9.82159886 2.75563433 19.25562891 2.6640625 29.28051758-.00437073.75679046-.00874145 1.51358093-.01324463 2.29330444-.24420835 30.7996699-7.10846736 60.88955025-22.42425537 87.83169556-.66578602 1.22432474-1.32982422 2.44960142-1.9921875 3.67578125-20.10997588 36.74022607-53.68928824 67.2362586-93.45703125 81.0703125-3.54346519 1.18954947-3.54346519 1.18954947-6.80078125 2.75390625-4.81809399 2.10500562-9.93395862 3.00750479-15.0625 4.0625-1.47243164.31227539-1.47243164.31227539-2.97460937.63085937-1.97056159.41602194-3.94293416.82355463-5.91699219 1.22265625-1.70704403.35655338-3.40919404.73945312-5.09960938 1.16796875-8.64197575 2.08123542-17.4856005 1.8117584-26.32128906 1.79101563-.86638092-.00054383-1.73276184-.00108765-2.62539673-.00164795-14.23058813-.04104204-27.88185037-.95099624-41.74960327-4.37335205-.85464844-.20898926-1.70929687-.41797852-2.58984375-.63330078-25.9803753-6.5988967-48.87874984-18.73014922-69.87060547-35.19677735-1.46945434-1.1166548-3.00392447-2.146171-4.53955078-3.16992187v2c-1.64453125 1.69140625-1.64453125 1.69140625-3.8125 3.5625-.70769531.62003906-1.41539062 1.24007812-2.14453125 1.87890625-2.04296875 1.55859375-2.04296875 1.55859375-5.04296875 2.55859375l1.5 2.875c2.21769394 5.2776851 2.72795637 10.78843167.7265625 16.2265625-3.44569754 6.13383037-8.96688701 10.37232902-14.2265625 14.8984375-1.96522507 1.78488053-3.92384046 3.57495532-5.875 5.375-1.0193521.93639297-2.03888458 1.87258963-3.05859375 2.80859375-.50772949.46647949-1.01545898.93295898-1.53857422 1.41357422-1.49903904 1.37639475-2.99947279 2.75124942-4.50048828 4.12548828-5.22930874 4.78807504-10.4473893 9.58779901-15.65234375 14.40234375-3.70342292 3.42563907-7.42412287 6.82756699-11.1875 10.1875-4.34885543 3.89848853-8.61742132 7.87753062-12.875 11.875-.67973877.63776367-1.35947754 1.27552734-2.05981445 1.93261719-3.45210116 3.24149336-6.89754289 6.48975334-10.3347168 9.74707031-1.30595229 1.23181037-2.61194046 2.46358271-3.91796875 3.6953125-.5861206.55905029-1.17224121 1.11810058-1.77612305 1.69409179-7.84760784 7.38526472-14.48488845 12.98461073-25.72387695 13.11840821-1.0828125.02835937-2.165625.05671875-3.28125.0859375-7.56686144-1.08360395-12.27840887-7.37128309-17.21875-12.7109375-.68578125-.72574219-1.3715625-1.45148438-2.078125-2.19921875-13.25256162-14.18833411-13.25256162-14.18833411-14.234375-24.98828125 1.39698597-15.92564007 16.97017568-25.96581892 28.1875-35.6875 2.74323418-2.42050075 5.43384569-4.89700642 8.125-7.375 3.30028923-3.03888018 6.60949283-6.06156046 10-9 5.43702522-4.71807974 10.70533592-9.62367975 16-14.5 2.08231041-1.91778218 4.16540371-3.83470261 6.25-5.75.74878418-.68799683.74878418-.68799683 1.51269531-1.38989258 3.45671099-3.16712256 6.9596321-6.27333114 10.51855469-9.32495117 1.98403141-1.77210079 3.84370748-3.64874544 5.71875-5.53515625-1.36730003.00119339-1.36730003.00119339-2.76222229.00241089-8.60705039.00221141-17.21343731-.02427791-25.82029819-.08268929-4.42454-.02902382-8.84855138-.04710186-13.27319241-.03983879-4.27331237.0066065-8.54558142-.01596556-12.8186779-.05843735-1.62696238-.01110792-3.25403086-.01185219-4.88100052-.0018692-14.34847466.07672876-14.34847466.07672876-18.87405205-3.68236923-4.12636087-4.47926784-4.96393751-7.73415297-4.81665039-13.70361328.46600894-4.60831066 2.60054628-6.73821213 5.66091919-10.03483582 4.43773891-3.61553215 9.34092887-3.05990419 14.82296753-2.96638489 1.68380516-.0010952 1.68380516-.0010952 3.40162659-.00221252 3.70141827.00347668 7.40157014.04234485 11.10276794.08155823 2.56974602.00932775 5.13950094.01644404 7.70925903.0214386 6.06679428.01712422 12.13306781.05650892 18.19966615.10674744 6.90925431.05596947 13.81853073.08339893 20.72795546.10847718 14.20722001.05220314 28.41405983.14009772 42.62093186.25161803-.39791748-.6798999-.79583496-1.35979981-1.20581055-2.06030274-1.82824322-3.12514081-3.65497551-6.25116232-5.48168945-9.37719726-.62583984-1.06927735-1.25167969-2.13855469-1.89648437-3.24023438-1.23704385-2.11787087-2.47000206-4.23813379-3.69873047-6.36083984-1.06187495-1.83118327-2.13324322-3.65694227-3.21972656-5.47363281-2.79892419-4.78479327-4.40866278-9.04331387-5.4975586-14.48779297-.77083923.00645255-1.54167847.0129051-2.33587646.01955318-18.77103916.1547056-37.54195079.2704824-56.31349182.34313202-9.07788514.03606835-18.15534427.08522707-27.23295594.16539097-7.91366681.06985175-15.82702505.11495056-23.74099159.13054329-4.18914179.00911252-8.37740098.03047059-12.56625938.08149093-3.94664228.0476786-7.89204246.06213812-11.83894539.05164338-1.44478493.00191853-2.88961335.01574732-4.33414841.04268455-12.24103195.21698132-12.24103195.21698132-17.48230171-4.07160568-3.41943956-3.36069504-4.36207311-6.58858873-4.45581055-11.33314514.62920433-5.08266354 2.86756729-8.07987001 6.60159302-11.59661865 5.11556963-3.23943874 11.50330832-2.35171262 17.32369995-2.28717042 1.39002957.00112923 2.78006153.00049316 4.17008972-.00177001 3.76213193-.00114519 7.52375118.0223318 11.28576422.05029583 3.93576011.02504662 7.87153266.02735821 11.80736017.03210163 7.44789116.01242024 14.89554677.04522882 22.34333432.08539796 8.48120202.04474745 16.96241543.0667122 25.44370615.08678174 17.44188069.04178271 34.88353227.11211609 52.3252337.20129442-.31287964-1.32390747-.31287964-1.32390747-.63208008-2.67456055-.27223388-1.16313721-.54446777-2.32627441-.82495117-3.5246582-.27046142-1.15072998-.54092285-2.30145996-.81958008-3.48706055-1.57726845-7.22519902-1.76970754-14.27546517-1.74291992-21.63793945.00211487-1.10958069.00211487-1.10958069.00427246-2.24157715.00365645-1.81140482.00926034-3.62280553.01525879-5.4342041-.7884732.00888244-1.57694641.01776489-2.38931274.0269165-7.44446539.08027498-14.88871979.14111298-22.33350563.18033219-3.82712005.0208412-7.65388132.04909431-11.48079491.09450912-3.69586062.0435832-7.39137698.06740536-11.08747482.07775116-1.40738593.00736916-2.81475383.02175966-4.2219925.04341125-1.97673411.0291937-3.95381743.03071503-5.93076706.03118134-1.68544418.01332367-1.68544418.01332367-3.40493774.0269165-4.72890043-.72184437-7.84729022-3.04670125-11.0262146-6.54351806-1.78345769-4.65680619-2.00224305-9.03195688-1.125-13.9375 2.35462537-4.29014267 5.46757852-7.1669143 10-9 2.9866333-.24050904 2.9866333-.24050904 6.51269531-.22705078.64431977-.00029206 1.28863953-.00058411 1.95248413-.00088501 2.12112078.00138885 4.24188646.01692863 6.36294556.03262329 1.47401742.00373172 2.94803732.00657794 4.42205811.00857544 3.87325936.00762395 7.74636794.0272617 11.61956787.04940796 3.95485392.02048516 7.90973229.02959946 11.86462402.03967285 7.75527696.02142804 15.51042983.05554892 23.265625.09765625.13399704-.74883454.26799408-1.49766907.40605164-2.26919556.17755325-.98576019.3551065-1.97152038.53804016-2.9871521.26287056-1.4635643.26287056-1.4635643.53105163-2.95669556 1.81047014-9.61348747 4.71596632-18.82674111 8.37641907-27.88461303 1.16226109-2.93727887 2.16057152-5.90262972 3.1484375-8.90234375-.60684159.00368717-1.21368318.00737434-1.83891392.01117325-14.78174904.0884274-29.56347246.15457344-44.34542083.19607544-7.14853141.02060477-14.29688601.04868514-21.44530392.09450912-6.23227464.03993204-12.46442118.06569016-18.6968202.07459617-3.29855437.00520413-6.59665801.01950498-9.89511591.04656624-3.6868606.02904431-7.37296273.03303516-11.05991936.03118134-1.08757095.0143811-2.17514191.02876221-3.29566956.0435791-7.76061134-.04221253-11.88166992-1.50130911-17.8603363-6.56018066-2.44800656-4.60225233-2.64633006-8.85837483-1.5625-13.9375 2.28903119-3.73974186 5.03661142-7.01830571 9-9 1.81740279-.07989548 3.63784049-.09389416 5.45692444-.07746887 1.1593103.0075531 2.31862061.0151062 3.51306152.02288818 1.2784227.01309708 2.5568454.02619415 3.87400818.03968811 1.3551288.0100613 2.71026221.01951739 4.06539917.02841186 2.16790472.01428309 4.33580012.02894794 6.50368989.04535997 5.3826999.04033814 10.76521896.06109417 16.14805877.06985915.78102319.00128361 1.56204639.00256723 2.36673695.00388974 3.22344987.00488117 6.44690016.00905715 9.67035156.01278657 9.14897319.01129295 18.29690405.0419788 27.44547069.13217318 7.26538273.07150313 14.52953714.100444 21.79526228.07983666 3.84385325-.00932091 7.6849654.00253214 11.52836329.06596679 3.6218424.05927505 7.23942324.06174442 10.86149025.0220089 1.95110483-.00691846 3.90214286.04543945 5.8524971.09999465 5.45240269-.10851155 8.63207814-.30586498 12.65908623-4.18552207 2.35425464-2.95283208 4.29433406-6.13768948 6.25959968-9.35987282 1.84104675-2.28590607 3.79671676-4.43036616 5.8125-6.5625.50370117-.53681397 1.00740234-1.07362793 1.52636719-1.62670899 25.12612232-26.45738517 56.79959938-44.46390982 92.28613281-52.99829101.64396729-.15500977 1.28793457-.31001953 1.95141602-.46972657 2.13482664-.48756583 4.27432941-.92319962 6.42358398-1.34277343 1.35206543-.27142823 1.35206543-.27142823 2.73144531-.54833985 9.07889364-1.6227765 18.00691112-1.75801446 27.19775391-1.71240234zm-26.92919922 40.26074219c-.76417236.16636963-1.52834473.33273926-2.31567383.50415039-35.43541818 7.94341711-68.35063649 28.46184988-88.55541992 59.12084961-.70253906 1.11375-1.40507812 2.2275-2.12890625 3.375-.69222656 1.093125-1.38445312 2.18625-2.09765625 3.3125-19.75086698 32.88005601-26.57806775 72.42360544-17.36621094 109.86669922 1.26370095 4.68922534 2.80142174 9.25964217 4.46386719 13.82080078.22558594.63244629.45117188 1.26489258.68359375 1.9165039 12.49050433 34.60469525 39.14388486 64.1051985 72.31640625 80.0834961 4.04344778 1.72415828 8.16082507 3.2243019 12.30859375 4.67578125 3.69140625 1.32421875 3.69140625 1.32421875 7.078125 2.859375 4.27869795 1.73460727 8.47367629 2.68836512 12.98828125 3.58984375.79921875.16886718 1.5984375.33773437 2.421875.51171875 22.94676221 4.71559676 46.73523493 3.78362625 69.203125-2.63671875.89001709-.25386475 1.78003418-.50772949 2.69702149-.76928711 5.68622035-1.66320249 10.93404448-3.73145352 16.30297851-6.23071289 1.40736297-.60200481 2.8149189-1.20355867 4.22265625-1.8046875 12.22938265-5.43290733 23.95076435-13.14707603 33.77734375-22.1953125.56251465-.51481934 1.1250293-1.02963867 1.70458984-1.5600586 14.37579195-13.30667594 26.02051559-28.65028056 34.29541016-46.4399414.46744629-1.00281006.46744629-1.00281006.94433594-2.02587891 4.46686454-9.77269494 7.61288177-19.53621259 9.68115234-30.078125.32626898-1.6517633.68906949-3.29622753 1.05810547-4.93896484 7.002013-35.78270093-2.9866536-73.87597618-23.05371094-103.73876953-23.37837626-33.4897895-57.65753028-54.67630842-97.62988281-62.21826172-7.51746909-1.08945342-14.94019821-1.18611724-22.52563476-1.18530274-2.27094404-.00218197-4.54139768-.02037257-6.81225586-.03930664-8.08049293-.0320694-15.76504833.35642703-23.66210938 2.22460938z" fill="#040f49" transform="translate(486.929199 261.739258)"/><path d="m0 0c.76054688.51949219 1.52109375 1.03898437 2.3046875 1.57421875.61617187.40605469 1.23234375.81210937 1.8671875 1.23046875 8.95910495 6.70900716 16.07090013 19.49891952 17.66796875 30.43359375 2.11718673 18.23296061-.22162722 34.26873178-11.53515625 49.3359375-5.44877386 6.53012975-11.06242135 10.92855454-19 14-.81855469.31839844-1.63710937.63679688-2.48046875.96484375-10.47415218 3.43856433-23.44528695 4.04126263-33.515625-.83203125-5.72958455-3.23894643-9.19973147-6.32863772-14.00390625-11.1328125-.33 15.84-.66 31.68-1 48-9.9 0-19.8 0-30 0 0-45.87 0-91.74 0-139h30c.33 3.96.66 7.92 1 12 .6290625-.60328125 1.258125-1.2065625 1.90625-1.828125 16.19766895-15.12432944 37.94717211-16.86712292 56.7890625-4.74609375z" fill="#06124a" transform="translate(1051.695313 385.425781)"/><path d="m0 0c-.64254013 3.45929712-2.01100048 5.84190364-3.94140625 8.765625-.87495117 1.33417969-.87495117 1.33417969-1.76757813 2.6953125-.61166015.92039062-1.22332031 1.84078125-1.85351562 2.7890625-.92329102 1.40378906-.92329102 1.40378906-1.86523438 2.8359375-1.51907983 2.30805928-3.04330687 4.61254051-4.57226562 6.9140625-3.63197991-.79832681-5.9334637-2.1814398-9-4.3125-10.7816658-6.9586847-21.69231601-9.48349135-34.375-7-4.53366325 1.64149876-8.38240889 3.82731778-10.625 8.3125-.40802226 4.43331878-.49977267 8.59438935 1 12.8125 5.04157998 5.51422811 11.95117964 8.17765273 18.875 10.5625 1.67358841.59911264 3.34675523 1.19940406 5.01953125 1.80078125.8451416.30115723 1.6902832.60231445 2.56103516.91259766 27.90360273 9.99731842 27.90360273 9.99731842 35.54443359 18.91162109.50273438.58523438 1.00546875 1.17046875 1.5234375 1.7734375 7.65187167 9.44352943 8.52415602 19.20541935 7.73095703 31.02880859-1.26502031 10.92870717-7.47140707 20.46634551-15.81689453 27.38525391-15.79601237 11.06648225-35.49409213 11.77049897-54.0625 9.125-14.74255036-3.11042247-27.06054766-10.61927386-38.375-20.3125 1.76754075-4.18352841 4.620859-7.48929753 7.4375-11 .97822146-1.22888267 1.95609549-2.458042 2.93359375-3.6875.45616699-.57234375.91233398-1.1446875 1.38232422-1.734375 1.44929882-1.83475667 2.85883266-3.69643094 4.24658203-5.578125 3.71592356.57104393 5.32538239 2.05532775 7.9375 4.6875 10.39615225 9.58583855 22.24918576 11.81459829 35.87109375 11.59765625 6.33982047-.28067281 10.79201809-2.36564572 15.69140625-6.28515625 2.99659539-3.99546052 2.92240887-8.10005717 2.5-13-3.15294911-6.43201618-8.17590281-8.94396528-14.61767578-11.3527832-1.2736002-.40654165-2.54960444-.80561167-3.82763672-1.19799805-1.42195338-.45613595-2.84382576-.91252445-4.265625-1.36914063-2.19652424-.69524132-4.39420716-1.38638889-6.59375-2.07202148-17.75341415-5.56196199-32.17028641-12.09895068-41.6953125-29.00805664-3.93459669-8.86896795-3.72372527-23.62530082-.375-32.625 6.24016142-12.74214779 16.91957281-22.7269342 30.125-27.796875 24.60888266-6.32311568 47.40958794.74256359 67.25 15.421875z" fill="#26d76c" transform="translate(1308 349)"/><path d="m0 0c11.85921995 8.37803992 18.08127089 18.99536492 21.93359375 32.72265625 1 6 1 6 1 22-24.42 0-48.84 0-74 0 4.98053917 12.56814657 4.98053917 12.56814657 15.33984375 20.3359375 9.20320603 2.29742294 19.40313617 2.03311298 27.6328125-2.890625 2.83323852-2.01984249 5.46618377-4.08634936 8.02734375-6.4453125 2.93230193 1.32120828 4.98664899 2.74638197 7.234375 5.0390625.57363281.58007813 1.14726563 1.16015625 1.73828125 1.7578125.58652344.60328125 1.17304687 1.2065625 1.77734375 1.828125.60199219.61101562 1.20398437 1.22203125 1.82421875 1.8515625 1.4798343 1.50332374 2.95342801 3.01278606 4.42578125 4.5234375-3.85653535 8.55783559-12.70035623 12.57715421-21 16-14.21719656 5.00790433-32.19165199 5.31559083-46-1-14.24067406-7.35863479-23.38649874-18.50234215-29.1730957-33.28149414-1.3675605-4.49595102-1.38041427-8.80168476-1.2644043-13.46850586.02525757-1.44342773.02525757-1.44342773.05102539-2.91601563.43376417-15.44459408 4.02202881-27.34680488 14.69506836-38.81445312 2.1509909-1.98696386 4.33761725-3.7795901 6.69140625-5.51953125.63421875-.47824219 1.2684375-.95648438 1.921875-1.44921875 16.51637611-11.36353976 40.31281363-10.67792079 57.14453125-.2734375z" fill="#07124b" transform="translate(1166.066406 385.277344)"/><path d="m0 0c10.77432687 8.6058015 16.94597657 20.53479169 19.46484375 33.96875v20c-23.76 0-47.52 0-72 0 4.97716814 12.56991669 4.97716814 12.56991669 15.34375 20.33203125 8.61217331 2.16570829 17.99840384 2.14550116 25.90625-2.08203125 3.41799625-2.19542529 6.72177616-4.5350407 9.75-7.25 2.92700833 1.30886976 4.87184315 2.66226088 7.015625 5.0390625.79277344.87011719.79277344.87011719 1.6015625 1.7578125.53882813.60328125 1.07765625 1.2065625 1.6328125 1.828125.55429688.61101562 1.10859375 1.22203125 1.6796875 1.8515625 1.3620966 1.50300315 2.71692851 3.0125843 4.0703125 4.5234375-3.34555858 8.11976108-12.52349146 12.63033624-20.1640625 15.9921875-15.53613528 5.52110593-32.11994387 4.50150603-46.9765625-2.46484375-12.91336923-6.86225526-21.67430037-18.23589853-26.234375-32.02734375-4.30077689-16.60678134-1.80537891-32.27756371 6.82421875-47.07421875 7.01500112-10.97308739 17.91555353-18.39587679 30.11328125-22.67578125 14.63481219-3.15035096 29.71614352-.21371917 41.97265625 8.28125z" fill="#27d76e" transform="translate(1403.535156 386.03125)"/><path d="m0 0c2.02091069 1.4211319 3.8459689 2.93773624 5.69140625 4.578125.58007813.45375 1.16015625.9075 1.7578125 1.375 4.44257741 3.82499938 6.94747743 8.40140915 9.5546875 13.5625.33773438.66821777.67546875 1.33643555 1.0234375 2.02490234 5.49485731 11.40405356 4.6640625 20.76207983 4.6640625 34.03759766-23.76 0-47.52 0-72 0 2.82676199 9.46142632 2.82676199 9.46142632 8.4375 15.5625.74121094.62003906 1.48242187 1.24007812 2.24609375 1.87890625 6.91937166 4.65569864 14.22589117 4.34439204 22.31640625 3.55859375 6.80365951-1.85206479 12.55063511-4.43829388 17-10 2.93230193 1.32120828 4.98664899 2.74638197 7.234375 5.0390625.57363281.58007812 1.14726563 1.16015625 1.73828125 1.7578125.58652344.60328125 1.17304687 1.2065625 1.77734375 1.828125.60199219.61101562 1.20398437 1.22203125 1.82421875 1.8515625 1.4798343 1.50332374 2.95342801 3.01278606 4.42578125 4.5234375-3.34555858 8.11976108-12.52349146 12.63033624-20.1640625 15.9921875-15.33248897 5.44873575-31.45674384 4.40387127-46.2734375-2.0546875-14.64004586-7.32002293-22.25416588-19.98533975-27.5625-34.9375-4.19160122-15.92808463.18499223-31.35942766 7.95947266-45.24267578 4.4121145-7.45152515 10.68632177-12.35335228 18.04052734-16.75732422.825-.51046875 1.65-1.0209375 2.5-1.546875 14.43989086-7.47180399 34.27870525-5.3643793 47.80859375 2.96875z" fill="#27d86d" transform="translate(1706.308594 384.421875)"/><path d="m0 0h119v29c-14.85 0-29.7 0-45 0v116c-10.23 0-20.46 0-31 0 0-38.28 0-76.56 0-116-14.19 0-28.38 0-43 0 0-9.57 0-19.14 0-29z" fill="#0c164e" transform="translate(733 338)"/><path d="m0 0h32c1.423125 4.021875 2.84625 8.04375 4.3125 12.1875 3.72958406 10.47761324 7.55749319 20.91326274 11.5 31.3125.4431958 1.17199951.8863916 2.34399902 1.34301758 3.55151367 2.80951655 7.37662786 5.76429143 14.68078682 8.84448242 21.94848633.41773682-1.2281543.83547363-2.45630859 1.26586914-3.72167969 1.58522012-4.65980502 3.17160512-9.31921284 4.75830078-13.97851562.6799937-1.99729162 1.35969243-3.99468368 2.0390625-5.9921875 3.569442-10.49431801 7.15409385-20.9829364 10.80786133-31.44824219.28641861-.82216003.57283722-1.64432007.86793518-2.49139404.26844223-.76628723.53688446-1.53257447.8134613-2.32208252.34840188-.9955893.34840188-.9955893.70384217-2.01129151.86404476-2.36394788 1.80891165-4.69771706 2.7436676-7.03460693h31c-3.2464281 11.90356971-3.2464281 11.90356971-5.97143555 16.99389648-1.11803541 2.18060692-2.02701338 4.385637-2.9230957 6.66625977-.52219116 1.32197388-.52219116 1.32197388-1.05493164 2.6706543-.34667725.88083252-.69335449 1.76166504-1.05053711 2.66918945-.61871455 1.54990958-1.23847104 3.09940371-1.859375 4.6484375-.30711914.76779785-.61423828 1.5355957-.93066406 2.32666016-3.78352865 9.45882161-7.56705729 18.91764323-11.35058594 28.37646484-.2873703.71855667-.5747406 1.43711334-.87081909 2.17744446-.635659 1.5888924-1.27165796 3.17764885-1.90808106 4.76623535-2.00194391 4.9990262-3.99168366 10.00268178-5.97167968 15.01043701-1.44066611 3.63584318-2.89201177 7.2673909-4.34414673 10.89866638-.75989181 1.90575266-1.51607832 3.81298693-2.26855469 5.72167969-1.10090396 2.79037918-2.21517765 5.57510339-3.33203125 8.35913086-.32833832.84087662-.65667664 1.68175323-.9949646 2.54811096-3.65452621 9.02950148-8.51681103 18.34715718-17.8878479 22.31907654-2.74376059 1.01446938-5.49560731 1.9555509-8.28125 2.84765625-.99.33-1.98.66-3 1-10.7317996.8112017-20.77802093.14798605-30-6 1.30960645-7.26236302 3.75956186-13.3830748 7-20 1.0209375.23783203 1.0209375.23783203 2.0625.48046875 3.34543474.59167928 6.54064614.7624836 9.9375.83203125 1.794375.05607422 1.794375.05607422 3.625.11328125 3.98317496-.50250703 5.53965082-1.65240692 8.375-4.42578125 2.32345562-3.31922231 2.30880995-6.00990273 2-10-.96721826-3.09215383-2.25644338-6.02414956-3.55859375-8.98828125-.37583221-.87967941-.75166443-1.75935883-1.1388855-2.66569519-1.23705043-2.89041136-2.4886153-5.774302-3.74002075-8.65852356-1.30227935-3.03349176-2.60069907-6.06861676-3.89891052-9.10385132-.89002522-2.08029546-1.78128447-4.16006337-2.67373657-6.23931885-4.89789995-11.42253041-9.63451048-22.91088359-14.35481263-34.40771484-3.67589321-8.94911141-7.40761871-17.82206358-11.59280395-26.54794311-1.04223633-2.38867188-1.04223633-2.38867188-1.04223633-4.38867188z" fill="#06114a" transform="translate(838 380)"/><path d="m0 0c8.36413164 5.45428002 12.65954732 13.4494697 15.3890686 22.8649292 1.31476866 6.74689963.97197904 13.67155631.90390015 20.5178833-.00560558 1.66722225-.00987113 3.33444948-.01286316 5.00167847-.01137311 4.35657756-.040774 8.71284797-.07411194 13.06930542-.03086472 4.45806729-.04442821 8.91618493-.05950927 13.37432861-.03203096 8.72411397-.08473588 17.44792071-.14648438 26.171875-8.91 0-17.82 0-27 0-.01458252-2.02850098-.02916504-4.05700195-.04418945-6.14697266-.0504113-6.71363604-.11701779-13.42704174-.19152546-20.14045143-.04466487-4.06904799-.08392935-8.13799677-.11072064-12.20720482-.02607203-3.9294504-.06650149-7.85851818-.11675071-11.78773117-.01664247-1.49659707-.02817306-2.99326029-.03442765-4.48993683-.0096701-2.10185925-.03776136-4.20274546-.07001304-6.30436325-.01110306-1.19468902-.02220612-2.38937805-.03364563-3.62026977-.52226905-4.3264927-1.9483646-7.71295875-4.89872742-10.94760132-6.50242858-5.06308892-12.46324293-5.0680876-20.5-4.35546875-4.50665768 2.13473258-7.1741532 4.91822129-10 9-1.12740711 3.38222132-1.15917691 6.01638703-1.20532227 9.58276367-.01484939.99552132-.01484939.99552132-.02999877 2.01115418-.03155986 2.19131414-.05635051 4.38264996-.08108521 6.5740509-.0205743 1.5202948-.0415709 3.04058394-.06297302 4.56086731-.05517157 3.99974481-.10460248 7.99954083-.15284729 11.99937439-.05025094 4.08217929-.10591825 8.16428429-.16113282 12.24639893-.10752146 8.00840241-.20847917 16.016868-.30664062 24.02539062-9.24 0-18.48 0-28 0 0-33.99 0-67.98 0-103h27v12h2c.2475-.5878125.495-1.175625.75-1.78125 3.46079713-6.14291491 10.98237054-10.24807697 17.4609375-12.5546875 10.57714837-2.51836866 20.27672306-.70075697 29.7890625 4.3359375z" fill="#27d76e" transform="translate(1514 382)"/><path d="m0 0c2.11970766 1.84179044 2.39190434 2.77875568 2.7578125 5.52734375-1.29892903 2.56560474-2.60453784 4.81184097-4.1875 7.1875-.40025391.64130859-.80050781 1.28261719-1.21289062 1.94335937-3.0239828 4.64134799-3.0239828 4.64134799-5.56640626 5.64746094-3.34839549.36507482-5.50902443-1.53737029-8.34570312-3.21582031-7.53227109-4.14003531-14.16623724-4.74542714-22.6875-3.5625-3.21076479 1.21094277-3.21076479 1.21094277-5 4-.75102535 3.37183542-.75102535 3.37183542 0 7 4.83800428 4.42231324 11.13983955 6.22245542 17.3125 7.9375 11.31437509 3.37023939 23.45423067 7.97508532 30.125 18.375 3.52398711 7.91752949 2.84154914 19.43215585-.1875 27.4375-4.04438007 8.28468166-9.8765906 13.0752079-18.38671875 16.51953125-15.46479975 4.99035157-31.42055548 4.00699071-45.95605469-3.32519531-11.19949332-6.20893526-11.19949332-6.20893526-12.69140625-9.8671875-.38732343-3.72776899 2.39816745-6.41371408 4.53417969-9.26464844.68449219-.96196289.68449219-.96196289 1.3828125-1.94335937 3.45846542-4.73289994 3.45846542-4.73289994 6.8671875-5.86914063 2.34765625 1.328125 2.34765625 1.328125 5.0625 3.25 9.60051059 6.29562278 18.46495813 7.82861505 29.9375 6.75 2.81399436-.92656573 2.81399436-.92656573 5-2 1.30055941-5.87347813 1.30055941-5.87347813-.375-11.375-2.78941933-1.7267834-5.532221-2.76280555-8.6640625-3.71484375-3.87440323-1.19094453-7.69676771-2.51241396-11.5234375-3.84765625-.70793701-.24089355-1.41587402-.48178711-2.14526367-.72998047-10.63389368-3.70591872-18.88252732-7.95035293-24.31176758-18.24658203-3.22013871-6.85081304-3.20945988-15.77872561-1.14453125-23.015625 4.53571403-9.77157184 12.1727083-16.27261996 22.1640625-20.0703125 16.44219228-4.43224314 33.01664695-.00163441 47.2421875 8.47265625z" fill="#26d76c" transform="translate(1615.242188 387.472656)"/><path d="m0 0c1.15798096-.00852997 2.31596191-.01705994 3.5090332-.02584839 1.26659455.00090637 2.53318909.00181275 3.83816529.00274658 1.3504473-.00598587 2.70089118-.01279156 4.05133056-.02035522 3.66535668-.01766136 7.33061996-.02235543 10.99601507-.02363157 2.2909411-.00142209 4.58185848-.00569278 6.87279368-.01099444 7.99506003-.01850075 15.99005339-.02667056 23.98513412-.02509689 7.4481893.00120141 14.89608882-.01990046 22.34420479-.05148733 6.3984368-.02616659 12.79677898-.03687981 19.19526887-.03560185 3.81985057.00050953 7.63944359-.00516823 11.45924079-.0263561 3.59359-.01938911 7.18667696-.01950279 10.78028488-.00496674 1.94306631.00308221 3.88613269-.01358373 5.82912445-.03087997 6.45501207.0465366 10.5775875.12104593 15.45974732 4.51989746.77472656.62003906 1.54945312 1.24007812 2.34765625 1.87890625 2.18216402 2.80121764 2.1563855 4.54075332 2.08984375 8.05859375-.0019336 1.52947265-.0019336 1.52947265-.00390625 3.08984375-.7094773 4.86407406-2.30816658 7.11416768-6.20603943 10.08750915-5.53087262 3.0273297-11.63713149 2.45004044-17.77857971 2.41859436-1.37059963.00706565-2.74119145.01581338-4.11177063.02610779-3.70661051.02242807-7.41279272.01957051-11.11944509.01067853-3.09901928-.00512261-6.19795899.0021927-9.29697007.00947207-7.31131404.01697697-14.62241924.01345421-21.93372828-.00328964-7.53525453-.01693376-15.06993029-.00106502-22.60512167.03122288-6.47920569.02670812-12.95823133.03396909-19.43748653.02548492-3.86566399-.00492394-7.73097952-.00274236-11.59659964.01778752-3.63397836.01837775-7.26712436.0123743-10.90105819-.0121994-1.96449129-.00738047-3.92902703.0098297-5.89344979.02782249-9.62839986-.10359324-9.62839986-.10359324-13.2711029-3.03410339-3.6600858-4.22169261-5.59430599-7.4163428-5.34474182-13.06993103.76493404-5.03156613 3.22110968-8.31486089 7.0625-11.5625 3.29714848-2.01949046 5.84082799-2.254638 9.67965698-2.26742554z" fill="#770aef" transform="translate(65.679657 413.732574)"/><path d="m0 0c5.49117286 1.97101293 9.73086813 4.41217355 14 8.375.55429687.51304687 1.10859375 1.02609375 1.6796875 1.5546875 9.43901992 9.8147023 8.86762073 22.44051159 8.8203125 35.1328125-.01212962 3.27531586.0017945 6.54904093.03125 9.82421875-.01131958.73353195-.02263916 1.4670639-.03430176 2.2228241.04782063 4.94975348 1.18894429 8.31848735 3.64453125 12.61856079.85852051 1.64689636.85852051 1.64689636.85852051 3.64689636 3.84372191 1.99801861 7.82095299 3.53228776 11.85546875 5.09765625 2.14453125.90234375 2.14453125.90234375 3.14453125 1.90234375.12557162 2.30993382.17575729 4.62418536.1875 6.9375.01417969 1.26714844.02835938 2.53429687.04296875 3.83984375-.23046875 3.22265625-.23046875 3.22265625-2.23046875 5.22265625-1.42267364.48354133-2.86329463.9154908-4.3125 1.3125-5.30968313 1.69603041-7.99771746 4.40870608-11.29492188 8.85522461-1.77887903 3.61794806-1.81528333 6.83038303-1.79882812 10.77368164-.01083618.7635228-.02167236 1.52704559-.03283691 2.31370544-.03413838 2.43588159-.04980814 4.87129967-.06091309 7.30738831-.1339891 28.94455835-.1339891 28.94455835-10.5 39.4375-7.40209071 6.48900386-16.10679049 9.3780775-25.8203125 10.15234375-2.1796875-.15234375-2.1796875-.15234375-4.1796875-2.15234375-.30078125-2.93359375-.30078125-2.93359375-.3125-6.4375-.01675781-1.15371094-.03351562-2.30742188-.05078125-3.49609375.36328125-3.06640625.36328125-3.06640625 1.609375-4.90234375 2.62168302-1.74000343 5.35435168-2.18786798 8.40234375-2.83203125 3.77225355-2.13677485 5.57100499-5.44175446 7.3515625-9.33203125.62862492-3.22903943.60732425-6.33642705.53125-9.6171875.00326294-.89719757.00652588-1.79439514.0098877-2.71878052.01305487-3.80206667-.03140824-7.60293024-.07092286-11.40475464-.1621493-21.94294943-.1621493-21.94294943 7.98681641-30.98583984.77730469-.62648438 1.55460938-1.25296875 2.35546875-1.8984375 1.18529297-.97839844 1.18529297-.97839844 2.39453125-1.9765625.59167969-.46148437 1.18335938-.92296875 1.79296875-1.3984375-.680625-.66-1.36125-1.32-2.0625-2-.98399933-.99524504-1.96252077-1.99591691-2.9375-3-.60070312-.61617188-1.20140625-1.23234375-1.8203125-1.8671875-.61617187-.66257812-1.23234375-1.32515625-1.8671875-2.0078125-.58136719-.61617188-1.16273438-1.23234375-1.76171875-1.8671875-3.81348113-5.55212114-3.83236401-11.73174341-3.82421875-18.2265625-.02028146-1.72266284-.04113209-3.44531905-.0625-5.16796875-.02259837-2.68576705-.03907988-5.37127107-.04492188-8.05712891-.00955894-2.61293706-.04336067-5.22472497-.08007812-7.83740234.00504547-.79498901.01009094-1.58997803.01528931-2.40905762-.11669664-6.66650567-1.98608625-11.0608394-6.86685181-15.80969238-3.13685567-2.04260369-6.21891522-3.34922538-9.6875-4.75-1-1-1-1-1.09765625-4.16015625.01740234-1.93166016.01740234-1.93166016.03515625-3.90234375.00902344-1.29035156.01804687-2.58070313.02734375-3.91015625.01160156-.99902344.02320313-1.99804687.03515625-3.02734375 5.11949886-2.55974943 10.80845193-.95875074 16 .625z" fill="#5a1df0" transform="translate(559 358.625)"/><path d="m0 0c1.98119355 1.98119355 1.18500411 5.73445064 1.1875 8.4375.01224609.69416016.02449219 1.38832031.03710938 2.10351562.00528904 1.82119339-.10291731 3.64185358-.22460938 5.45898438-2.23160471 2.23160471-3.45415922 2.54221193-6.4375 3.375-2.89406892.92294826-4.32733712 1.38983712-6.5 3.5625-.5259375 1.0209375-.5259375 1.0209375-1.0625 2.0625-.34482422.53786133-.68964844 1.07572266-1.04492188 1.62988281-1.37067173 3.40145224-1.27311804 6.740852-1.29882812 10.35449219-.0146228.77442444-.02924561 1.54884888-.04431152 2.34674072-.04639931 2.47290901-.08062677 4.94574106-.11193848 7.41888428-.04144006 3.24507529-.0952832 6.48961434-.15625 9.734375-.0052771.73361755-.0105542 1.46723511-.01599121 2.2230835-.16084896 8.48031442-1.90680027 17.82213154-8.07385254 24.0581665-1.71410702 1.4682164-3.46910698 2.854013-5.25390625 4.234375-.99.99-.99.99-2 2 .51949219.3403125 1.03898437.680625 1.57421875 1.03125 7.18612123 4.99442067 11.07595495 10.5220933 13.42578125 18.96875.2879492 3.04208362.30067281 6.07083444.30859375 9.125.02515085 1.77604508.05054901 3.55208667.07617187 5.328125.02875305 2.77798627.05279534 5.55591228.07153321 8.33398438.02170563 2.69626923.06113448 5.39185831.10229492 8.08789062.00011581.82516113.00023163 1.65032227.00035095 2.50048828.10414051 6.0976254 1.23398774 10.41744416 5.6910553 14.87451172 3.16167956 2.0119779 6.13059968 2.84514992 9.75 3.75 1.75559942 1.75559942 1.13221919 4.03582442 1.13671875 6.37109375-.00386719.70253906-.00773437 1.40507813-.01171875 2.12890625.00580078 1.05380859.00580078 1.05380859.01171875 2.12890625-.01010497 5.24447997-.01010497 5.24447997-1.13671875 6.37109375-10.07987233.87651064-19.29210724-2.60184683-27-9-7.46201033-6.94566586-10.71385579-15.49841385-11.15771484-25.58349609-.01756348-1.30018067-.03512696-2.60036133-.05322266-3.93994141-.02806711-1.447928-.05673157-2.89584452-.0859375-4.34375-.04116424-2.25325203-.07810717-4.5062893-.10449219-6.75976562-.08709584-11.50961203-.08709584-11.50961203-3.59863281-22.37304688-.33-.99-.66-1.98-1-3-2.13326836-1.03973184-2.13326836-1.03973184-5-2-1.58853378-.67539701-3.17158765-1.36377606-4.75-2.0625-1.16789062-.51240234-1.16789062-.51240234-2.359375-1.03515625-1.890625-.90234375-1.890625-.90234375-2.890625-1.90234375-.12586907-2.2890608-.17577971-4.58251118-.1875-6.875-.01417969-1.25554687-.02835937-2.51109375-.04296875-3.8046875.23046875-3.3203125.23046875-3.3203125 2.23046875-6.3203125 2.4609375-.9921875 2.4609375-.9921875 5.375-1.875 4.5780671-1.57988198 7.21420645-2.72268135 9.625-7.125 1.95193815-4.81010156 2.28027963-9.20178304 2.2734375-14.328125.02029738-1.62110055.04114832-3.24219424.0625-4.86328125.02250789-2.525287.0390432-5.05030116.04492188-7.57568359.05419913-13.84516841 1.29422532-24.96688221 11.61914062-35.23291016 8.32233648-6.24844234 16.61185212-8.85572866 27-8z" fill="#5f1ef3" transform="translate(433 357)"/><path d="m0 0c1.39002957.00112922 2.78006153.00049316 4.17008972-.00177002 3.76213193-.00114518 7.52375118.02233181 11.28576422.05029583 3.93576011.02504662 7.87153266.02735821 11.80736017.03210163 7.44789116.01242024 14.89554677.04522882 22.34333432.08539796 8.48120202.04474746 16.96241543.06671221 25.44370615.08678174 17.44188069.04178271 34.88353227.11211609 52.3252337.20129442.67305018 1.60149886 1.33822227 3.2063103 2 4.8125.37125.89332032.7425 1.78664063 1.125 2.70703125.875 2.48046875.875 2.48046875.875 5.48046875.99.495.99.495 2 1-.04125.825-.0825 1.65-.125 2.5.10245289 2.86868077.41640611 4.98850833 1.1328125 7.71875.49113281 1.87171875.49113281 1.87171875.9921875 3.78125-19.41927005.16364921-38.83839983.28702334-58.25821686.36268521-9.01735255.03606778-18.03427621.08522539-27.05135345.16539096-7.86092912.06985352-15.72154758.11495098-23.58277846.1305433-4.16119874.00911223-8.32150891.03046835-12.48242235.08149093-3.92037963.04768145-7.83950884.06213757-11.76015091.05164337-1.43511004.00191841-2.87026391.01574557-4.30512237.04268456-12.15824787.21697997-12.15824787.21697997-17.399189-4.07160569-3.42434886-3.36083908-4.36773801-6.58492403-4.46154785-11.33314514.62920433-5.08266354 2.86756729-8.07987 6.60159302-11.59661865 5.11556963-3.23943874 11.50330832-2.35171261 17.32369995-2.28717041z" fill="#4e1df2" transform="translate(182.624512 481.545898)"/><path d="m0 0c1.16390259-.00137466 2.32780518-.00274933 3.52697754-.00416565 1.92481705.00539291 1.92481705.00539291 3.88851929.01089478 1.3598836.00028196 2.71976736.00012396 4.07965088-.00044251 3.69812399-.00028763 7.39621573.00560355 11.09433221.01257396 3.86240397.00623926 7.72480863.00683779 11.58721686.00802541 7.31687939.00311162 14.63374389.01132274 21.95061671.02134949 8.3287855.01116637 16.6575717.01667291 24.98636282.02169543 17.13560895.01046056 34.27120339.02805675 51.40680098.05032361-1.20838078 3.0878711-2.41477033 5.86714771-4.2421875 8.63671875-.42490722.65548828-.84981445 1.31097656-1.28759765 1.98632812-.4439209.68126953-.8878418 1.36253906-1.34521485 2.06445313-3.76862578 5.88417994-6.97027949 11.62321844-9.125 18.3125-.33-.66-.66-1.32-1-2-.60684159.00368717-1.21368318.00737434-1.83891391.01117324-14.78174904.08842741-29.56347247.15457345-44.34542084.19607544-7.14853141.02060478-14.29688601.04868515-21.44530392.09450913-6.23227463.03993204-12.46442118.06569016-18.6968202.07459617-3.29855437.00520413-6.596658.01950498-9.89511591.04656624-3.68686059.02904431-7.37296273.03303516-11.05991936.03118134-1.63135643.02157165-1.63135643.02157165-3.29566955.0435791-7.76061134-.04221253-11.88166993-1.50130912-17.86033631-6.56018066-2.44800655-4.60225233-2.64633005-8.85837483-1.5625-13.9375 3.7872113-6.18741794 7.2400515-9.12682391 14.47952271-9.12025452z" fill="#7f24f6" transform="translate(206.479523 339.879745)"/><path d="m0 0c.70837509 1.03821144.70837509 1.03821144 1.43106079 2.09739685.598125.66 1.19625 1.32 1.8125 2 1.1875 2 1.1875 2 1.0625 3.82421875-1.24855983 3.1046778-3.2202849 4.75225468-5.6875 6.98828125-.87269531.81082031-1.74539062 1.62164063-2.64453125 2.45703125-2.54296875 1.73046875-2.54296875 1.73046875-4.6796875 1.6171875-1.86328125-.88671875-1.86328125-.88671875-4.86328125-2.88671875-5.66383817-.65032054-11.10637543-.89321913-16.3125 1.5625-1.3303125 1.2065625-1.3303125 1.2065625-2.6875 2.4375-.67933594.57878906-1.35867187 1.15757813-2.05859375 1.75390625-2.73525607 2.33545037-5.39794009 4.7026276-7.94140625 7.24609375-3.04069519.24291992-3.04069519.24291992-7.00073242.23046875-1.08084869.00026436-1.08084869.00026436-2.18353272.00053406-2.39059575-.00309574-4.78070598-.02204516-7.17120361-.04350281-1.66189043-.01094093-3.3237811-.02184538-4.985672-.03271484-3.48967688-.02600042-6.97913315-.06138694-10.4686737-.1015625-4.46100232-.049355-8.92129209-.06199075-13.38253308-.06565857-3.43621741-.00927068-6.87179367-.04517176-10.3077383-.08824158-1.64367938-.01611784-3.28748613-.02244318-4.93124008-.01861572-14.47372752.01717351-14.47372752.01717351-19.00739479-3.74789429-4.1191293-4.47855586-4.95453013-7.73502863-4.80737305-13.69921875.46603724-4.60859043 2.59528408-6.73630471 5.66488648-10.02513122 4.41487898-3.59754384 9.28868272-3.14358311 14.75552368-3.13136292 1.6741674-.02536331 1.6741674-.02536331 3.38215637-.05123901 3.68189108-.04911127 7.36290274-.06230204 11.04508972-.07351685 2.56018534-.02327679 5.12035658-.04815575 7.68051148-.0745697 5.36141473-.04979383 10.72255516-.08269372 16.08413696-.10194397 6.19549214-.02249599 12.39007526-.07709709 18.58517897-.14880949 5.96716714-.06832331 11.93433992-.11376445 17.90180147-.14904017 2.5366284-.01706452 5.07322472-.03989031 7.60974884-.06853103 3.54074245-.03672431 7.08062221-.04747805 10.62153244-.05109978 1.57729133-.02381493 1.57729133-.02381493 3.18644714-.04811096 7.11070152.03177884 7.11070152.03177884 10.29801941 2.3923645z" fill="#431ef1" transform="translate(342.568939 551.902603)"/><path d="m0 0c7.40963043 4.245968 12.1864564 10.27004774 15.02734375 18.30078125 2.19969417 8.99401581.91453801 17.5292998-3.33984375 25.69921875-3.73278527 5.62280313-8.30832956 10.36018426-15 12-7.74111432.83882044-15.953325 1.63162186-22.3984375-3.46484375-.52851562-.50660156-1.05703125-1.01320313-1.6015625-1.53515625-.54914062-.49628906-1.09828125-.99257813-1.6640625-1.50390625-6.21006101-6.34772246-8.53038725-14.40272663-8.8359375-23.12109375.20339957-5.91962892 1.47329515-10.31395255 4.5-15.375.54333984-.95519531.54333984-.95519531 1.09765625-1.9296875 6.90391866-10.90585118 20.54929872-14.40211069 32.21484375-9.0703125z" fill="#f9f9fb" transform="translate(1028.3125 404)"/><path d="m0 0c1.17344971-.0098568 1.17344971-.0098568 2.37060547-.01991272 2.59480887-.01974748 5.18955982-.03139877 7.78442383-.04136658.88556265-.00407552 1.77112529-.00815105 2.68352317-.01235008 4.68711427-.02086691 9.37419919-.03516594 14.06134987-.04453468 4.84238974-.01106589 9.68432012-.04546592 14.52654744-.0851717 3.72235756-.02614017 7.44460526-.03451782 11.16704654-.03810978 1.78498563-.00487269 3.56996614-.0165061 5.35486222-.035038 2.49935527-.02433673 4.99751659-.02343679 7.49695396-.01648521.73629135-.01281006 1.4725827-.02562012 2.23118591-.03881836 4.86969783.0493258 7.30353018 1.07836096 10.74024964 4.50878906 2.28326935 3.04435914 2.41859307 6.2060079 2.3203125 9.96875-.53387387 3.38554158-2.12757349 5.47305448-4.3203125 8.03125-3.62649712 2.49874761-7.44005275 2.3091278-11.68676758 2.32226563-1.15443855.01489471-1.15443855.01489471-2.3321991.03009033-2.54189148.02916951-5.08353334.04283448-7.62556457.05389404-1.77113347.01150923-3.54226689.02302462-5.31340027.0345459-3.71300922.02099912-7.42593209.03269794-11.13899231.03967285-4.74826649.01096434-9.49538438.05901329-14.2432909.11594391-3.6589795.03732582-7.31768434.04766772-10.97683811.05072785-1.74987186.0060381-3.49973974.02204518-5.24942399.04837036-15.39753685.21512573-15.39753685.21512573-20.00749778-3.56269837-3.25689396-4.2057425-3.31745123-6.3761481-2.99633789-11.5.88543609-4.08756115 2.48902786-5.84498354 5.5703125-8.6328125 3.05004649-1.52502324 6.23583079-1.16487731 9.58325195-1.17700195z" fill="#21d669" transform="translate(455.583252 440.822998)"/><path d="m0 0c1.01289108 3.25073989.98849363 5.85769994.66015625 9.234375-.09361816 1.03850098-.18723633 2.07700195-.28369141 3.14697266-.15541259 1.66748291-.15541259 1.66748291-.31396484 3.36865234-1.10191844 12.77395795-1.28961898 25.4369953-1.0625 38.25h2c-.33 2.97-.66 5.94-1 9-.33 0-.66 0-1 0-.34730878-2.33193041-.67757391-4.66458938-1-7-.185625-1.299375-.37125-2.59875-.5625-3.9375-.7785887-6.98296738-.51496505-14.04760944-.4375-21.0625-.78847321.00888245-1.57694641.01776489-2.38931274.0269165-7.44446539.08027498-14.88871979.14111299-22.33350563.18033219-3.82712005.0208412-7.65388132.04909431-11.48079491.09450912-3.69586062.0435832-7.39137698.06740537-11.08747482.07775116-1.40738593.00736916-2.81475383.02175966-4.2219925.04341126-1.97673411.02919369-3.95381744.03071502-5.93076706.03118133-1.68544418.01332367-1.68544418.01332367-3.40493774.02691651-4.72890043-.72184438-7.84729022-3.04670126-11.0262146-6.54351807-1.78345769-4.65680618-2.00224305-9.03195688-1.125-13.9375 2.35462537-4.29014267 5.46757852-7.1669143 10-9 2.9866333-.24050903 2.9866333-.24050903 6.51269531-.22705078.64431977-.00029205 1.28863953-.00058411 1.95248413-.00088501 2.12112077.00138885 4.24188646.01692863 6.36294556.03262329 1.47401742.00373172 2.94803732.00657794 4.42205811.00857544 3.87325936.00762395 7.74636794.02726171 11.61956787.04940796 3.95485392.02048516 7.90973229.02959946 11.86462402.03967285 7.75527696.02142804 15.51042982.05554893 23.265625.09765625 0-.66 0-1.32 0-2z" fill="#6015ed" transform="translate(309 412)"/><path d="m0 0c6.09469599 2.95500411 9.46069119 7.25700793 12.5703125 13.1875 2.28474932 6.85424795 2.111897 15.40718659-.75 22.0625-3.46888138 6.50415258-7.12952969 10.63741681-14.25 12.9375-6.52910369 1.11927492-11.03509657.05093127-16.50390625-3.61328125-1.49609375-1.38671875-1.49609375-1.38671875-2.49609375-4.38671875-.66 0-1.32 0-2 0v25c-2.64 0-5.28 0-8 0 0-21.12 0-42.24 0-64h8v6h2c.2784375-.86625.2784375-.86625.5625-1.75 4.6000578-7.20009047 13.3342454-7.95655459 20.8671875-5.4375z" fill="#121d57" transform="translate(1134.429688 555.8125)"/><path d="m0 0c6.04929821 3.43979702 11.56821451 7.76032928 13.7734375 14.640625 1.90943029 10.01550228-.07566388 17.53036383-5.3359375 25.984375-4.80218854 4.66879441-11.26499703 7.30097715-17.9375 7.5-6.33713237-.10132043-10.57091356-1.82415247-15.2578125-6.078125-5.39526061-5.73387529-8.07507781-11.23885695-8.5546875-19.109375.24941537-6.7653918 2.88568302-12.273497 7.4375-17.23828125 7.71239993-7.05509311 15.77948958-8.843722 25.875-5.69921875z" fill="#151f57" transform="translate(1292.8125 556.1875)"/><path d="m0 0c1.92602554-.0029306 1.92602554-.0029306 3.89096069-.00592041 2.7052931-.00128826 5.40894856.02147867 8.11392212.06256103 3.45488244.05118043 6.90720366.04884523 10.36232949.02939225 3.31537101-.01280871 6.62997866.01433193 9.9452877.03896713 1.23448883-.00384705 2.46897766-.00769409 3.74087524-.01165771 9.5338927.18339045 9.5338927.18339045 13.17074585 3.10443115 3.44352953 3.95614668 4.75701063 6.24674704 4.61962891 11.57519531-.52778625 3.40486494-2.11499586 5.49353684-4.3203125 8.06640625-3.27825976 2.11277716-5.99375265 2.27141864-9.85083008 2.32226562-1.76752373.02882264-1.76752373.02882264-3.570755.05822754-1.26982224.00849976-2.53964447.01699952-3.84794617.02575684-1.96425179.01710022-1.96425179.01710022-3.96818542.0345459-2.77144415.02098111-5.54277296.03269137-8.31428528.03967285-3.53775653.01095689-7.07396843.05899333-10.61124134.11594391-3.38956443.04639162-6.77892273.05016052-10.16878796.05983734-1.26374954.0246936-2.52749908.04938721-3.82954407.0748291-6.64025976-.03355444-10.89628799-.33967822-15.69346618-5.17347717-1.73074524-2.35450642-2.11198618-4.08873466-2.0824585-6.99510193-.02964844-.88558594-.05929687-1.77117187-.08984375-2.68359375 3.6849255-10.32619809 12.90773676-10.89772129 22.50390625-10.73828125z" fill="#22d669" transform="translate(472.476563 398.140625)"/><path d="m0 0c4.40779003 3.62886664 8.2324378 7.48936492 10 13v12c-11.55 0-23.1 0-35 0 2.99716489 7.47670752 2.99716489 7.47670752 9 12 5.89770641.74639023 10.09793856-.05913272 15.17578125-3.125 1.82421875-.875 1.82421875-.875 5.82421875-.875 1.75 2.5 1.75 2.5 3 5-7.38656021 6.12029275-12.63081807 8.40932314-22.1875 8.26953125-7.44152915-.71314654-11.70704219-4.72070707-16.3671875-10.26953125-4.853749-6.71653916-4.42062552-14.99164084-3.4453125-23 2.24125802-6.87385831 8.24947587-11.76995863 14.3125-15.375 6.9741227-1.621889 13.43340276-1.28305687 19.6875 2.375z" fill="#17225a" transform="translate(1464 558)"/><path d="m0 0h40v7c-10.56 0-21.12 0-32 0v19h28v8c-9.24 0-18.48 0-28 0v19h33v9c-13.53 0-27.06 0-41 0 0-20.46 0-40.92 0-62z" fill="#0c1650" transform="translate(920 541)"/><path d="m0 0c.97646484-.01546875 1.95292969-.0309375 2.95898438-.046875 6.01841634.03264226 9.5147975.57146381 14.10351562 4.546875 3.38692977 3.8385204 3.50607369 7.63342407 3.359375 12.5625-.69799268 4.7342112-3.73542167 8.44379942-7.359375 11.4375-4.4043137 1.46810457-8.69796511 1.26550881-13.3125 1.3125-1.40668945.04350586-1.40668945.04350586-2.84179688.08789062-5.78957125.05304047-9.33598665-.3797662-13.84570312-4.40039062-2.99013752-5.18290503-3.64726234-9.17463892-3-15 4.81215145-9.26784724 10.14846922-10.65446202 19.9375-10.5z" fill="#8024f5" transform="translate(145.9375 338.5)"/><path d="m0 0c.68578125-.00708984 1.3715625-.01417969 2.078125-.02148438 6.03227021.07482778 9.95379653 1.54338801 14.265625 5.74023438 2.01325356 3.30477471 2.19222185 5.36976188 2.15625 9.21875.0103125 1.1034375.020625 2.206875.03125 3.34375-.65273185 3.87799511-1.72502999 5.42486252-4.53125 8.15625-4.57381658 2.96908264-8.66018789 3.49270482-14 3.4375-1.02867187.0299707-1.02867187.0299707-2.078125.06054688-5.11916308-.0048847-8.0035694-1.2732467-11.921875-4.49804688-2.78837873-3.19843443-3.90289121-6.32023848-4.5-10.5.81104191-5.67729337 2.72383336-9.03819913 7.1484375-12.6796875 3.91163442-2.12450074 7.01674329-2.38410892 11.3515625-2.2578125z" fill="#431fee" transform="translate(177 550.5625)"/><path d="m0 0c3.67245764-1.07544855 6.34955246-1.22967519 10 0 4.49832035 4.26357618 7.73183298 9.78087396 11 15 1.45932573-1.93675945 2.91749264-3.87437288 4.375-5.8125.4125-.54720703.825-1.09441406 1.25-1.65820312 1.85907032-2.47376293 3.65789972-4.95364647 5.375-7.52929688 2.3828125-.29296875 2.3828125-.29296875 5.125-.1875.91007812.02707031 1.82015625.05414062 2.7578125.08203125.69867187.03480469 1.39734375.06960938 2.1171875.10546875-1.57130811 3.45039823-3.61853455 6.33515786-5.875 9.375-.70769531.969375-1.41539063 1.93875-2.14453125 2.9375-1.12869958 1.53164755-2.26616573 3.05713491-3.4296875 4.5625-1.71415465 2.30959784-2.59947547 3.5804186-2.33813477 6.50317383.88529417 2.94796095 2.07677204 4.75954839 3.94750977 7.19604492.94262695 1.24813477.94262695 1.24813477 1.90429687 2.52148437.65935547.85529297 1.31871094 1.71058594 1.99804688 2.59179688 1.30753567 1.70907238 2.61113962 3.42116236 3.91015625 5.13671875.58015869.75369873 1.16031738 1.50739746 1.75805664 2.28393555 1.26928711 1.8918457 1.26928711 1.8918457 1.26928711 3.8918457-3.69670691 1.15471973-6.32883534 1.3177293-10 0-4.08196951-4.17107832-7.00343715-9.39861951-9.921875-14.41772461-1.00255366-1.74754463-1.00255366-1.74754463-3.078125-2.58227539-.2475.52078125-.495 1.0415625-.75 1.578125-2.88276254 5.58535242-5.92867416 10.84061979-10.25 15.421875-3.57781328 1.07681759-6.39493868.88056821-10 0 1.45642134-3.11176853 3.19653665-5.82762815 5.1875-8.625l1.859375-2.625c.96679688-1.36125.96679688-1.36125 1.953125-2.75 1.31386677-1.87404252 2.62643113-3.74899902 3.9375-5.625 1.02083333-1.45833333 2.04166667-2.91666667 3.0625-4.375-2.69929412-4.95814397-5.66213104-9.34975974-9.1875-13.75-4.6795278-5.8510834-4.6795278-5.8510834-5.8125-9.25z" fill="#141d56" transform="translate(1010 556)"/><path d="m0 0c4.33166477 1.59002196 7.0542579 3.87693125 10 7.375 1.76558348 4.63465663 1.54979163 8.22303133-.25 12.8125-2.43450396 3.91259565-4.32852105 6.33867368-8.75 7.8125-2.63937224.14821529-5.23506123.23097341-7.875.25-.70769531.020625-1.41539063.04125-2.14453125.0625-4.5403293.03381996-7.39592643-.48811656-10.98046875-3.3125-3.10333188-4.27756556-4.74328802-7.67479178-4.453125-13.01171875 1.06284007-4.66366893 3.9425813-7.86848583 7.703125-10.65625 5.28533143-2.56008241 11.03006106-2.02281394 16.75-1.33203125z" fill="#461bf0" transform="translate(125 482)"/><path d="m0 0c4.83222994 2.70483311 8.3722865 5.95539164 10.75 11 .66 2.97 1.32 5.94 2 9-15.18 0-30.36 0-46 0 1.0471674-8.3773392 2.15184462-11.40703685 8-17 8.05265364-5.79036968 16.13910773-7.00988372 25.25-3z" fill="#f3fbf7" transform="translate(1384.25 402)"/><path d="m0 0c.83402344-.03287109 1.66804688-.06574219 2.52734375-.09960938 6.34939377-.05482208 9.45153451 1.3350205 14.22265625 5.53710938 2.14114338 3.63063442 2.5105738 6.83031399 2 11-2.338942 4.41800155-4.4558915 6.93936889-9 9-3.34061237.45751139-6.63246909.46434264-10 .4375-1.33417969.0299707-1.33417969.0299707-2.6953125.06054688-4.2160803-.00314633-6.64881201-.09581074-10.3046875-2.33789063-4.18433566-4.51940941-4.48499241-7.53917672-4.390625-13.4921875.390625-2.66796875.390625-2.66796875 2.703125-5.73046875 5.46453786-3.93955055 8.37849445-4.33021165 14.9375-4.375z" fill="#25d66b" transform="translate(488.25 481.5625)"/><path d="m0 0c5.34740414 1.95385921 8.45618143 4.91236287 11 10 .71376214 6.37868443 1.18854237 12.29085639-2.6875 17.6875-3.8583577 4.26213932-7.09857683 5.36252784-12.75 5.75-3.63009355-.09664143-4.67036251-.50341598-7.9375-2.5-4.82381067-5.39807385-6.22013911-10.47644307-5.97265625-17.578125.73562222-4.99231262 3.73471685-7.71857471 7.09765625-11.234375 4.02362347-2.63083073 6.5850546-2.97402006 11.25-2.125z" fill="#f6f6f8" transform="translate(1287 563)"/><path d="m0 0c1.29550781-.02578125 2.59101562-.0515625 3.92578125-.078125 4.97613881.43405572 8.15391068 1.83384537 11.80859375 5.23046875.56203125.67160156 1.1240625 1.34320313 1.703125 2.03515625.57234375.66902344 1.1446875 1.33804687 1.734375 2.02734375 3.34223375 4.48789634 3.515625 6.00875389 3.515625 12.03515625-14.85 0-29.7 0-45 0 0-7.26278528 1.75543326-10.71283501 6.78515625-15.80859375 5.10933687-4.52355302 8.61560946-5.35936786 15.52734375-5.44140625z" fill="#f5fcf8" transform="translate(1679.3125 400.75)"/><path d="m0 0c7.26744749 5.44291953 8.8031425 9.16882876 10.8515625 18.38671875-15.18 0-30.36 0-46 0 0-7.60771685 2.38345513-10.31854278 7.5234375-15.55078125 7.47027979-6.69953664 18.89507613-7.9553373 27.625-2.8359375z" fill="#f6f6f8" transform="translate(1150.148438 403.613281)"/><path d="m0 0c3.78986889 1.57911204 5.83327915 3.53324664 8 7 1.99542904 5.98628711 1.96941053 12.69756316-.625 18.5-2.16242672 3.67687888-4.21478796 5.24408693-8.375 6.5-4.04149532.71537417-7.39420771.88501052-11.0625-1.13671875-4.73040781-3.7547612-6.48922543-7.16501602-7.21875-13.18359375-.3934629-6.43311849 1.03195234-10.79598766 5.28125-15.6796875 4.46137989-2.97425326 8.76774934-2.49867492 14-2z" fill="#f5f6f8" transform="translate(1130 564)"/><path d="m0 0h9v69c-2.97 0-5.94 0-9 0 0-22.77 0-45.54 0-69z" fill="#1b235b" transform="translate(1200 534)"/><path d="m0 0h9c.33 1.98.66 3.96 1 6 .4125-.433125.825-.86625 1.25-1.3125 3.29172757-3.17416587 5.47483755-5.11290281 10.1875-5.0625 1.175625.12375 2.35125.2475 3.5625.375v8c-.59167969.07476563-1.18335938.14953125-1.79296875.2265625-4.32595958.71981709-7.33455438 1.29935043-10.20703125 4.7734375-2.84407807 4.26611711-3.16038778 6.41274127-3.31640625 11.5390625-.04189453 1.30195312-.08378906 2.60390625-.12695313 3.9453125-.03981361 1.38020545-.07952584 2.76041383-.11914062 4.140625-.04319407 1.38803415-.08680865 2.77605528-.13085938 4.1640625-.10636062 3.40354006-.20838776 6.80715528-.30664062 10.2109375-2.97 0-5.94 0-9 0 0-15.51 0-31.02 0-47z" fill="#141e57" transform="translate(1358 556)"/><path d="m0 0v10c-.74765625.08636719-1.4953125.17273438-2.265625.26171875-6.25182712.78179068-6.25182712.78179068-11.359375 4.17578125-2.17402063 4.0515839-2.54213709 7.21967139-2.69140625 11.76171875-.04189453 1.20849609-.08378906 2.41699219-.12695313 3.66210937-.0393164 1.26263672-.07863281 2.52527344-.11914062 3.82617188-.04318359 1.27423828-.08636719 2.54847656-.13085938 3.86132812-.10618922 3.1502804-.20823595 6.30064027-.30664062 9.45117188-2.64 0-5.28 0-8 0 0-15.18 0-30.36 0-46h8c.33 2.31.66 4.62 1 7 .721875-.94875 1.44375-1.8975 2.1875-2.875 3.98604145-4.74742015 7.70764149-5.40894691 13.8125-5.125z" fill="#0d1954" transform="translate(1550 555)"/><path d="m0 0h123v4c-40.59 0-81.18 0-123 0 0-1.32 0-2.64 0-4z" fill="#5f09e6" transform="translate(1593 572)"/><path d="m0 0h123v4c-40.59 0-81.18 0-123 0 0-1.32 0-2.64 0-4z" fill="#2f27eb" transform="translate(749 572)"/><path d="m0 0h1v19h33v9c-13.53 0-27.06 0-41 0 0-.33 0-.66 0-1h40c0-2.31 0-4.62 0-7-.495.495-.495.495-1 1v5c-12.21 0-24.42 0-37 0 0-2.64 0-5.28 0-8 .96679688-.24363281.96679688-.24363281 1.953125-.4921875 2.4805004-1.45995653 2.4805004-1.45995653 2.65625-5.203125.06647792-1.47580987.11256379-2.95264767.140625-4.4296875.02964844-.75410156.05929687-1.50820313.08984375-2.28515625.07073557-1.86270328.11770608-3.7262813.16015625-5.58984375z" fill="#273063" transform="translate(927 575)"/><path d="m0 0c2.98654323 1.50667621 5.19175528 3.17427201 7 6 .33 2.31.66 4.62 1 7-8.58 0-17.16 0-26 0 0-5.88948482 1.06610201-6.88313001 5-11 4.27250552-2.84833702 7.98903615-2.85663981 13-2z" fill="#e6e8ee" transform="translate(1457 563)"/><path d="m0 0c4 4.75 4 4.75 4 7-36.96 0-73.92 0-112 0 .66-.99 1.32-1.98 2-3 1.90153694-.36914349 1.90153694-.36914349 4.26467896-.36076355.89464965-.00412399 1.78929931-.00824799 2.71105957-.01249695 1.47598159.01617874 1.47598159.01617874 2.981781.03268433 1.5512558-.00065712 1.5512558-.00065712 3.1338501-.00132752 3.43067062.00209608 6.86085725.02546603 10.29144287.04893494 2.37368503.00559303 4.74737351.00986451 7.12106323.01286316 6.2571056.01147177 12.51400333.04095911 18.77102661.07411194 6.38099353.03065062 12.76202054.04438268 19.14306641.05950927 12.5274326.03220527 25.05472089.08285571 37.58203125.14648438 0-1.32 0-2.64 0-4z" fill="#e7e6fa" transform="translate(336 544)"/><path d="m0 0h56c.495 1.98.495 1.98 1 4-18.81 0-37.62 0-57 0 0-1.32 0-2.64 0-4z" fill="#6107e6" transform="translate(749 572)"/><path d="m0 0c4.87060183-.02507438 9.74116453-.04303343 14.61181641-.05493164 1.65039729-.00497011 3.30079033-.01174853 4.95117187-.02050781 10.20242018-.05271768 20.26739934.15742132 30.43701172 1.07543945v1c-.71027344.06058594-1.42054687.12117187-2.15234375.18359375-.91910156.08378906-1.83820313.16757812-2.78515625.25390625-.91652344.08121094-1.83304688.16242187-2.77734375.24609375-2.24675357.07685601-2.24675357.07685601-3.28515625 1.31640625-2.8843382.08865208-5.74462158.11521296-8.62890625.09765625-1.29634621-.00212242-1.29634621-.00212242-2.61888123-.00428772-2.77160544-.00561614-5.54313132-.01817134-8.31471252-.03086853-1.8743478-.00501292-3.74869685-.00957619-5.62304688-.01367188-4.60484856-.0110504-9.20963733-.02832582-13.81445312-.04882812 0-1.32 0-2.64 0-4z" fill="#3928ed" transform="translate(1593 572)"/><path d="m0 0c4.21127177.9455497 6.6413404 2.5677692 9.4375 5.9375 2.15626064 4.22627085 1.7074424 7.59722464.5625 12.0625-.66.99-1.32 1.98-2 3-.20625-1.051875-.4125-2.10375-.625-3.1875-1.23575805-4.35582804-3.76726133-6.12438099-7.375-8.8125-1.71939572-1.62114454-3.35284926-3.30440365-5-5 .33-.66.66-1.32 1-2-2.97 0-5.94 0-9 0 4.28275136-2.85516757 7.97650686-2.48097275 13-2z" fill="#1e2862" transform="translate(1457 555)"/><path d="m0 0c2.475.495 2.475.495 5 1-.48677625.40064572-.97355249.80129145-1.47507954 1.21407795-1.936187 2.26757995-1.90696566 3.40792226-1.92364788 6.36067486-.01253814.93809509-.02507629 1.87619018-.03799438 2.8427124.00143509 1.02714615.00287018 2.0542923.00434875 3.11256409-.01019165 1.08308441-.0203833 2.16616882-.03088379 3.28207397-.0302445 3.58742366-.03941362 7.17458082-.04846191 10.76211548-.01683815 2.48436885-.03498721 4.96872914-.05439758 7.45307922-.04273202 5.87538981-.07222123 11.75072988-.09532339 17.6262272-.02969089 7.34540446-.07989161 14.69063371-.1295759 22.03592795-.08614658 13.10345064-.15401138 26.2069303-.20898438 39.31054688-.33 0-.66 0-1 0 0-37.95 0-75.9 0-115z" fill="#ebebf2" transform="translate(807 367)"/><path d="m0 0h34v1c-2.64 0-5.28 0-8 0v2h8v1c-10.89 0-21.78 0-33 0-.33-1.32-.66-2.64-1-4z" fill="#4715eb" transform="translate(805 572)"/><path d="m0 0c.6875 1.6875.6875 1.6875 1 4-.95093297 1.69514137-1.95107762 3.36368108-3 5v3c-1.27839548 5.22979969-3.56650984 8.02437982-7 12v2c-1.65 0-3.3 0-5 0 1.3500344-5.86037658 3.7265873-10.23700227 7-15.25.45117188-.70640625.90234375-1.4128125 1.3671875-2.140625 1.84960322-2.889321 3.72980456-5.75486309 5.6328125-8.609375z" fill="#241593" transform="translate(338 342)"/><path d="m0 0h1c.10660944 5.24755356-.00189715 10.39842786-.5 15.625-.89298225 10.42651107-.58308904 20.91984173-.5 31.375h2c-.33 2.97-.66 5.94-1 9-.33 0-.66 0-1 0-1.67552119-11.11528787-2.18746633-21.75202006-2-33-6.27 0-12.54 0-19 0 0-.33 0-.66 0-1h19c-.04125-1.959375-.0825-3.91875-.125-5.9375-.01246704-5.6974362.63759764-10.57770379 2.125-16.0625z" fill="#390dc1" transform="translate(308 419)"/><path d="m0 0h23c.33.66.66 1.32 1 2 2.52733235.65555119 2.52733235.65555119 5 1v1c-8.58 0-17.16 0-26 0 .33-.66.66-1.32 1-2-1.32-.66-2.64-1.32-4-2z" fill="#4412e4" transform="translate(1629 572)"/><path d="m0 0c-.33.66-.66 1.32-1 2-9.24 0-18.48 0-28 0 0-.66 0-1.32 0-2 9.52626344-1.52420215 19.49606115-1.81027407 29 0z" fill="#3d2bf2" transform="translate(860 573)"/><path d="m0 0c.83920486.00141495 1.67840973.0028299 2.54304504.00428772 2.67969837.00559638 5.35931311.01814818 8.03898621.03086853 1.81705608.00501547 3.63411348.00957829 5.45117187.01367187 4.45380826.01102422 8.90755402.02828635 13.36132813.04882813v1c-.55647217.01981934-1.11294434.03963867-1.6862793.06005859-13.83174739.51192031-27.54909657 1.49029286-41.3137207 2.93994141l2-1c0-.66 0-1.32 0-2 3.88461047-1.29487016 7.55883956-1.1232604 11.60546875-1.09765625z" fill="#060a3a" transform="translate(472.605469 297.902344)"/><path d="m0 0v10c-4.29.66-8.58 1.32-13 2 3.97959184-3.97959184 3.97959184-3.97959184 8.125-4.0625.94875.020625 1.8975.04125 2.875.0625-.33-1.65-.66-3.3-1-5-2.31.33-4.62.66-7 1 .33-.99.66-1.98 1-3 3.1964086-1.06546953 5.65747276-1.07427838 9-1z" fill="#3f4576" transform="translate(1550 555)"/><path d="m0 0c2.93230193 1.32120828 4.98664899 2.74638197 7.234375 5.0390625.86044922.87011719.86044922.87011719 1.73828125 1.7578125.58652344.60328125 1.17304687 1.2065625 1.77734375 1.828125.60199219.61101562 1.20398437 1.22203125 1.82421875 1.8515625 1.4798343 1.50332374 2.95342801 3.01278606 4.42578125 4.5234375-.33.99-.66 1.98-1 3-5.66666667-5.66666667-11.33333333-11.33333333-17-17z" fill="#161b54" transform="translate(1166 451)"/><path d="m0 0c.99.33 1.98.66 3 1-.33.99-.66 1.98-1 3l3.3125-.625c3.6875-.375 3.6875-.375 6.6875 1.625-.56847656.02578125-1.13695312.0515625-1.72265625.078125-5.80236778.42621733-9.42302885 1.72009283-14.27734375 4.921875 1.75-7.75 1.75-7.75 4-10z" fill="#09154f" transform="translate(1118 558)"/><path d="m0 0h16c.33.66.66 1.32 1 2-1.01320313.09087891-1.01320313.09087891-2.046875.18359375-.89203125.08378906-1.7840625.16757812-2.703125.25390625-.88171875.08121094-1.7634375.16242188-2.671875.24609375-2.27162952.2787909-4.37664323.70431202-6.578125 1.31640625v6c-2-3-2-3-3-10z" fill="#091261" transform="translate(310 481)"/><path d="m0 0h1c.34733105 5.67307385-.60103527 9.00215682-3 14v1c-1.65 0-3.3 0-5 0 1.30842073-5.70947228 3.48584882-10.28589476 7-15z" fill="#3016a0" transform="translate(331 353)"/><path d="m0 0h7v10c-.78375.28875-1.5675.5775-2.375.875-2.72171632.97412254-2.72171632.97412254-4.625 3.125-2.32275177.40047444-4.65739357.7397104-7 1 1.4375-2.4375 1.4375-2.4375 4-5 2.99304558-.73151889 5.92553213-.92773687 9-1 0-2.64 0-5.28 0-8-1.98 0-3.96 0-6 0 0-.33 0-.66 0-1z" fill="#b0b3c8" transform="translate(1377 555)"/><path d="m0 0v2c-6.27087737 3.71607548-10.75460274 4.53449652-18 4-.33-.99-.66-1.98-1-3 1.134375.061875 2.26875.12375 3.4375.1875 4.26479625.0228064 7.71415906-1.0389954 11.6796875-2.53125 1.8828125-.65625 1.8828125-.65625 3.8828125-.65625z" fill="#2a3161" transform="translate(1140 598)"/><path d="m0 0c1.28132813.00902344 2.56265625.01804687 3.8828125.02734375.98742187.01160156 1.97484375.02320313 2.9921875.03515625v2c-4.62 0-9.24 0-14 0v2c-2.31.66-4.62 1.32-7 2 5.09453797-5.22860476 6.82121736-6.12889802 14.125-6.0625z" fill="#5836f1" transform="translate(118.125 481.9375)"/><path d="m0 0c2.0625.4375 2.0625.4375 4 1-3.11035463 2.07356975-3.90533822 2.19932787-7.4375 2.3125-3.63580842.3182069-4.26844837.38571017-6.9375 3.125-.53625.845625-1.0725 1.69125-1.625 2.5625-.99.66-1.98 1.32-3 2 1.05875074-3.40312738 2.00902154-6.01353231 4-9 2.34765625-.4765625 2.34765625-.4765625 5.0625-.625 3.2757639.06458263 3.2757639.06458263 5.9375-1.375z" fill="#0e1365" transform="translate(335 366)"/><path d="m0 0c.99.33 1.98.66 3 1 2.00875442-.27571139 4.01178687-.60235737 6-1v6c-1.98 0-3.96 0-6 0l1-2c-2.41645782-.16687448-2.41645782-.16687448-5 0-.66.66-1.32 1.32-2 2 .57344937-2.86724686.8614515-3.8614515 3-6z" fill="#18235e" transform="translate(1539 557)"/><path d="m0 0v1c-2.31.66-4.62 1.32-7 2v12c-.99 0-1.98 0-3 0 0-4.62 0-9.24 0-14 3.21451269-1.60725635 6.43612536-1.05748185 10-1z" fill="#7e3af7" transform="translate(553 357)"/><path d="m0 0c.78375.04125 1.5675.0825 2.375.125-.99.33-1.98.66-3 1-1.0541518 3.16245541-1.31275672 5.86948218-1.5625 9.1875-.08378906 1.08667969-.16757812 2.17335938-.25390625 3.29296875-.06058594.83144531-.12117187 1.66289063-.18359375 2.51953125-.66-.33-1.32-.66-2-1-.05386629-2.12472576-.09273071-4.24983652-.125-6.375-.02320313-1.18335938-.04640625-2.36671875-.0703125-3.5859375.2495607-3.88316449.84999768-4.97499989 4.8203125-5.1640625z" fill="#602fef" transform="translate(547.625 517.875)"/><path d="m0 0h1c.33 7.59.66 15.18 1 23h2c-.33 2.97-.66 5.94-1 9-.33 0-.66 0-1 0-1.6000144-10.74295385-2.25991325-21.14140199-2-32z" fill="#646a8f" transform="translate(306 443)"/><path d="m0 0h1c-.33 9.9-.66 19.8-1 30-.33 0-.66 0-1 0-.22594826-4.24925612-.42771126-8.49932444-.625-12.75-.06445312-1.2065625-.12890625-2.413125-.1953125-3.65625-.0515625-1.16015625-.103125-2.3203125-.15625-3.515625-.05236816-1.06831055-.10473633-2.13662109-.15869141-3.23730469.13665515-2.87025135.6406984-4.42300696 2.13525391-6.84082031z" fill="#353a69" transform="translate(344 426)"/><path d="m0 0c1.98362069 2.91708924 1.9876191 4.12380904 1.625 7.75-.20625 1.0725-.4125 2.145-.625 3.25-.33 0-.66 0-1 0-.33 4.62-.66 9.24-1 14-.33 0-.66 0-1 0-.05437005-2.85442753-.09384974-5.70780076-.125-8.5625-.01675781-.79986328-.03351563-1.59972656-.05078125-2.42382812-.04145857-5.07867523.5352205-9.20179094 2.17578125-14.01367188z" fill="#4cde87" transform="translate(1325 415)"/><path d="m0 0h16v2c-8.415.495-8.415.495-17 1 .33-.99.66-1.98 1-3z" fill="#4929ef" transform="translate(169 551)"/><path d="m0 0h1v6c-.66 0-1.32 0-2 0 .20625 1.11375.4125 2.2275.625 3.375.12375 1.19625.2475 2.3925.375 3.625-2.5 2.5-2.5 2.5-5 5 .57065878-6.41991126 2.67344909-12.01589463 5-18z" fill="#3d4270" transform="translate(318 380)"/><path d="m0 0 2 1c-2.32216997 4.51533049-4.98560245 7.01055501-9 10-.66 0-1.32 0-2 0 1.40844718-3.21524305 3.10344786-5.32183868 5.625-7.75.63164062-.61359375 1.26328125-1.2271875 1.9140625-1.859375.72316406-.68835938.72316406-.68835938 1.4609375-1.390625z" fill="#141c51" transform="translate(226 647)"/><path d="m0 0c2.62187494 1.04874998 3.79371361 1.64931313 5.25 4.125.2475.61875.495 1.2375.75 1.875-1.375 1.5-1.375 1.5-3 3-.66 0-1.32 0-2 0 0-.99 0-1.98 0-3l2-1c-.66-.66-1.32-1.32-2-2-.99.66-1.98 1.32-3 2-.66-.66-1.32-1.32-2-2 1.32-.99 2.64-1.98 4-3z" fill="#252e69" transform="translate(1466 590)"/><path d="m0 0h1v15c-.99.495-.99.495-2 1-.22384382-1.72722728-.42839969-3.45696007-.625-5.1875-.11601562-.96292969-.23203125-1.92585938-.3515625-2.91796875-.02538692-3.13528448.63296967-5.0893966 1.9765625-7.89453125z" fill="#6922f5" transform="translate(433 358)"/><path d="m0 0 4 2c-2.97 2.31-5.94 4.62-9 7-.33-.99-.66-1.98-1-3z" fill="#141c50" transform="translate(287 592)"/><path d="m0 0c1.5 1.3125 1.5 1.3125 3 3v3c-1.93719378.05406122-3.87481921.09282025-5.8125.125-1.07894531.02320313-2.15789062.04640625-3.26953125.0703125-2.91796875-.1953125-2.91796875-.1953125-5.91796875-2.1953125h12c0-1.32 0-2.64 0-4z" fill="#ededf5" transform="translate(336 544)"/><path d="m0 0 2 1c-.33.66-.66 1.32-1 2-.99-.33-1.98-.66-3-1zm-4 3c.99.33 1.98.66 3 1-2.51830747 3.12270126-3.7261549 3.94523098-7.75 4.75-1.60875.12375-1.60875.12375-3.25.25 1.33333333-1 2.66666667-2 4-3l2.0625-1.75c.639375-.4125 1.27875-.825 1.9375-1.25z" fill="#3cde7d" transform="translate(1402 451)"/><path d="m0 0c0 3 0 3-1.53125 4.82421875-.6496875.61488281-1.299375 1.22976563-1.96875 1.86328125-.6496875.62261719-1.299375 1.24523437-1.96875 1.88671875-.5053125.47050781-1.010625.94101562-1.53125 1.42578125-.99-.66-1.98-1.32-3-2z" fill="#2fde75" transform="translate(1347 385)"/><path d="m0 0h1c.33 2.31.66 4.62 1 7-1.98.99-1.98.99-4 2v6c-.33 0-.66 0-1 0-.36263859-5.8022175.74315457-9.63999211 3-15z" fill="#282e5e" transform="translate(216 658)"/><path d="m0 0h10c-1.61737724 3.23475448-2.47629223 4.70572021-5 7-.0825-.78375-.165-1.5675-.25-2.375-.2475-.86625-.495-1.7325-.75-2.625-1.32-.66-2.64-1.32-4-2z" fill="#273067" transform="translate(1042 556)"/><path d="m0 0c.70125.01417969 1.4025.02835938 2.125.04296875 1.051875.00966797 1.051875.00966797 2.125.01953125 1.875.16796875 1.875.16796875 3.875 1.16796875v2c-4.16138263.08159574-7.9472484-.01751476-12-1 2-2 2-2 3.875-2.23046875z" fill="#5d29ea" transform="translate(424.875 531.769531)"/><path d="m0 0h3c1.32 2.97 2.64 5.94 4 9-.66.66-1.32 1.32-2 2-.83573823-1.64461345-1.66852882-3.29072513-2.5-4.9375-.4640625-.91652344-.928125-1.83304687-1.40625-2.77734375-1.09375-2.28515625-1.09375-2.28515625-1.09375-3.28515625z" fill="#111850" transform="translate(1089 451)"/><path d="m0 0h5v12c-.99.495-.99.495-2 1 0-3.63 0-7.26 0-11-.99 0-1.98 0-3 0 0-.66 0-1.32 0-2z" fill="#09103e" transform="translate(846 340)"/><path d="m0 0c.99.33 1.98.66 3 1-3.08632611 3.2626876-5.93483504 6.02235218-10 8-.66-.33-1.32-.66-2-1 2.97-2.64 5.94-5.28 9-8z" fill="#1f2558" transform="translate(373 303)"/><path d="m0 0 4 1c-1.28721299 4.8270487-1.78563473 5.83922605-6 9 .66-3.3 1.32-6.6 2-10z" fill="#201584" transform="translate(332 353)"/><path d="m0 0c0 3.9765245-1.38011503 5.0890167-4 8-2.25 1.8125-2.25 1.8125-4 3-.66-.33-1.32-.66-2-1z" fill="#2b315f" transform="translate(598 539)"/><path d="m0 0 2 2c-.125 3-.125 3-1 6-1.98.99-1.98.99-4 2 .99-3.3 1.98-6.6 3-10z" fill="#242c61" transform="translate(850 503)"/><path d="m0 0h3c.268125.61875.53625 1.2375.8125 1.875 1.14306848 2.4245233 1.14306848 2.4245233 4.1875 4.125-2.97-.33-5.94-.66-9-1 .33-1.65.66-3.3 1-5z" fill="#0c154e" transform="translate(1450 557)"/><path d="m0 0 5 1v2c-2.5614657 2.29648649-3.47967572 3-7 3 .66-1.98 1.32-3.96 2-6z" fill="#1a2359" transform="translate(854 494)"/><path d="m0 0h3c-1.12451727 2.9719385-2.22293791 5.33440687-4 8-.66 0-1.32 0-2 0 .54723683-3.37462715 1.0549-5.08235 3-8z" fill="#171b64" transform="translate(342 336)"/><path d="m0 0 2.9375.875c.66 1.32 1.32 2.64 2 4-3.63-.99-7.26-1.98-11-3 3-2 3-2 6.0625-1.875z" fill="#54e08a" transform="translate(1573.0625 437.125)"/><path d="m0 0 2 1c-.66 1.98-1.32 3.96-2 6-.66 0-1.32 0-2 0v2c-.66 0-1.32 0-2 0 1.05875074-3.40312738 2.00902154-6.01353231 4-9z" fill="#38df7b" transform="translate(1332 400)"/><path d="m0 0c2.96865509 2.54456151 4.3619751 5.48994665 6 9-.99 0-1.98 0-3 0-2.49977543-3.33303391-3-4.73303602-3-9z" fill="#0f1652" transform="translate(336 540)"/><path d="m0 0 7 2c-.66.66-1.32 1.32-2 2-.66 0-1.32 0-2 0v6c-2.29633824-3.44450737-2.54016485-5.93812283-3-10z" fill="#251ea2" transform="translate(310 481)"/><path d="m0 0c1 4 1 4-.4375 6.75-.7734375 1.11375-.7734375 1.11375-1.5625 2.25-.99-.66-1.98-1.32-3-2 1.65-2.31 3.3-4.62 5-7z" fill="#1a245a" transform="translate(1017 590)"/><path d="m0 0c2 3 2 3 2 6-.33.66-.66 1.32-1 2-1.32-.66-2.64-1.32-4-2z" fill="#3ee07d" transform="translate(1207 458)"/><path d="m0 0c4.12751449.60698743 7.3321148 2.03810791 11 4-.66.66-1.32 1.32-2 2-.928125-.474375-1.85625-.94875-2.8125-1.4375-3.09946237-1.60738875-3.09946237-1.60738875-6.1875-2.5625 0-.66 0-1.32 0-2z" fill="#f0f1f5" transform="translate(548 313)"/><path d="m0 0c4.95.99 4.95.99 10 2-.66.66-1.32 1.32-2 2-2.72869407-.03287583-5.2966618-.56397771-8-1 0-.99 0-1.98 0-3z" fill="#0f1653" transform="translate(444 581)"/><path d="m0 0c2.60334924 2.71182212 2.99456691 3.89133813 3.1875 7.75-.061875 1.0725-.12375 2.145-.1875 3.25-2.00881937-3.01322906-3.03927918-5.52662474-4-9z" fill="#101852" transform="translate(856 418)"/><path d="m0 0 2.25.6875c-2.33214148 1.20628008-4.49642139 2.1654738-7 3-.66.66-1.32 1.32-2 2 0-3 0-3 1.6875-4.75 2.3125-1.25 2.3125-1.25 5.0625-.9375z" fill="#6827ed" transform="translate(243.75 415.3125)"/><path d="m0 0c.99.33 1.98.66 3 1-1.8125 2.5-1.8125 2.5-4 5-.99 0-1.98 0-3 0 1.15173355-2.46800047 2.04783565-4.04783565 4-6z" fill="#35e276" transform="translate(446 442)"/><path d="m0 0 2 3c-.75 1.9375-.75 1.9375-2 4-2.125.75-2.125.75-4 1 1.12451727-2.9719385 2.22293791-5.33440687 4-8z" fill="#232b61" transform="translate(1095 399)"/><path d="m0 0 2 1c-2.21928194 2.90802461-3.92969143 4.95312762-7 7 1.625-5.75 1.625-5.75 5-8z" fill="#212a62" transform="translate(325 369)"/><path d="m0 0 2 2c-2.97 2.475-2.97 2.475-6 5-.99-.66-1.98-1.32-3-2l2.9375-.8125c1.010625-.391875 2.02125-.78375 3.0625-1.1875.33-.99.66-1.98 1-3z" fill="#252e65" transform="translate(1136 590)"/><path d="m0 0 2 1c-1.65 1.98-3.3 3.96-5 6-.99-.33-1.98-.66-3-1z" fill="#242d65" transform="translate(1271 558)"/><path d="m0 0 2 1c-.66 1.32-1.32 2.64-2 4-3 0-3 0-5-1z" fill="#1b2258" transform="translate(577 558)"/><path d="m0 0h1c.25 7.625.25 7.625-2 11-1.23076923-6.4-1.23076923-6.4-.0625-9.4375.350625-.515625.70125-1.03125 1.0625-1.5625z" fill="#3d426c" transform="translate(344 426)"/><path d="m0 0c1.33897583.95043374 2.67105427 1.91059147 4 2.875 1.11375.80050781 1.11375.80050781 2.25 1.6171875.5775.49757813 1.155.99515625 1.75 1.5078125v2c-2.95012857-1.36970255-5.5652222-2.82609125-8-5 0-.99 0-1.98 0-3z" fill="#30d971" transform="translate(1551 426)"/><path d="m0 0c.80050781.12761719 1.60101563.25523437 2.42578125.38671875.80824219.11988281 1.61648437.23976563 2.44921875.36328125.61488281.10699219 1.22976562.21398437 1.86328125.32421875v1c-5.94.495-5.94.495-12 1 3-3 3-3 5.26171875-3.07421875z" fill="#8d3df6" transform="translate(137.261719 338.925781)"/><path d="m0 0c-.33.99-.66 1.98-1 3-2.375.625-2.375.625-5 1-.66-.66-1.32-1.32-2-2 5.75-2 5.75-2 8-2z" fill="#d0d2e1" transform="translate(264 706)"/><path d="m0 0 1 3c-2.475 1.485-2.475 1.485-5 3-.99-.66-1.98-1.32-3-2 .969375-.474375 1.93875-.94875 2.9375-1.4375 2.86727437-1.26443947 2.86727437-1.26443947 4.0625-2.5625z" fill="#1c255b" transform="translate(1294 591)"/><path d="m0 0 2 1c-1 2-2 4-3 6-.66 0-1.32 0-2 0 1.875-5.875 1.875-5.875 3-7z" fill="#1b2459" transform="translate(1434 564)"/><path d="m0 0c0 3 0 3-1.3125 4.6875-1.6875 1.3125-1.6875 1.3125-4.6875 1.3125 0-.66 0-1.32 0-2 1.96147874-1.38938077 3.96166576-2.7260411 6-4z" fill="#4d15f2" transform="translate(559 511)"/><path d="m0 0c3.36720387 1.39332574 4.9859524 2.9789286 7 6-.99 0-1.98 0-3 0-4-4.45714286-4-4.45714286-4-6z" fill="#2cdd73" transform="translate(1410 460)"/><path d="m0 0 2 1c-.66 1.65-1.32 3.3-2 5-1.32-.66-2.64-1.32-4-2z" fill="#e8defd" transform="translate(405 442)"/><path d="m0 0 2 4c-.66.66-1.32 1.32-2 2-2.125-.375-2.125-.375-4-1 1.32-1.65 2.64-3.3 4-5z" fill="#212855" transform="translate(348 328)"/><path d="m0 0c.99.33 1.98.66 3 1-2 3-2 3-5.125 3.6875-.94875.103125-1.8975.20625-2.875.3125z" fill="#dedfeb" transform="translate(407 324)"/><path d="m0 0 2 1v2c-2.5 1.625-2.5 1.625-5 3-.66-.66-1.32-1.32-2-2z" fill="#1a2052" transform="translate(382 296)"/><path d="m0 0 2 1c-1.65 1.65-3.3 3.3-5 5-.66-.66-1.32-1.32-2-2z" fill="#232a5b" transform="translate(389 291)"/></svg>